<svg xmlns="http://www.w3.org/2000/svg" xmlns:xlink="http://www.w3.org/1999/xlink" id="body_1" preserveAspectRatio="xMinYMin meet" viewBox="0 0 793 1121"><defs><clipPath id="1"><path id="" clip-rule="evenodd" transform="matrix(1 0 0 1 0 0)" d="M0 841L0 -0.9199829L0 -0.9199829L595.32 -0.9199829L595.32 -0.9199829L595.32 841L595.32 841L0 841z" /></clipPath><clipPath id="2"><path id="" clip-rule="evenodd" transform="matrix(1 0 0 1 0 0)" d="M153.35 455.27L222.952 455.27L222.952 455.27L222.952 328.95L222.952 328.95L153.35 328.95z" /></clipPath><clipPath id="3"><path id="" clip-rule="evenodd" transform="matrix(1 0 0 1 0 0)" d="M144.1 591.42L232.613 591.42L232.613 591.42L232.613 488.4L232.613 488.4L144.1 488.4z" /></clipPath><clipPath id="4"><path id="" clip-rule="evenodd" transform="matrix(1 0 0 1 0 0)" d="M360.27 590.2L444.514 590.2L444.514 590.2L444.514 492.146L444.514 492.146L360.27 492.146z" /></clipPath><clipPath id="5"><path id="" clip-rule="evenodd" transform="matrix(1 0 0 1 0 0)" d="M81.049 450.98L154.224 450.98L154.224 450.98L154.224 331.21L154.224 331.21L81.049 331.21z" /></clipPath><clipPath id="6"><path id="" clip-rule="evenodd" transform="matrix(1 0 0 1 0 0)" d="M127.1 774.52L243.45 774.52L243.45 774.52L243.45 677.02L243.45 677.02L127.1 677.02z" /></clipPath><clipPath id="7"><path id="" clip-rule="evenodd" transform="matrix(1 0 0 1 0 0)" d="M320.3 768.949L473.52 768.949L473.52 768.949L473.52 642.879L473.52 642.879L320.3 642.879z" /></clipPath></defs><g transform="matrix(1.333333 0 0 1.333333 0 0)"><g clip-path="url(#1)"><path id="6" transform="matrix(1 0 0 -1 0 841)" d="M73.847 558.39C 68.229 558.39 63.655 553.81 63.655 548.19L63.655 548.19L63.655 48.438C 63.655 42.82 68.229 38.246 73.847 38.246L73.847 38.246L523.88 38.246C 529.49 38.246 534.07 42.82 534.07 48.438L534.07 48.438L534.07 548.19C 534.07 553.81 529.49 558.39 523.88 558.39z" stroke="#5B9BD5" stroke-width="2" fill="none" /><g clip-path="url(#2)"><g transform="matrix(0.1718593 0 0 0.1718639 153.35 328.95)"><g transform="matrix(1 0 0 1 0 0)"><image x="0" y="0" xlink:href="img_01.png" width="405" height="735" /></g></g></g><g clip-path="url(#3)"><g transform="matrix(0.7255164 0 0 0.7254929 144.1 488.4)"><g transform="matrix(1 0 0 1 0 0)"><image x="0" y="0" xlink:href="img_02.png" width="122" height="142" /></g></g></g><g clip-path="url(#4)"><g transform="matrix(0.7907407 0 0 0.7907581 349.02 492.146)"><g transform="matrix(1 0 0 1 0 0)"><image x="0" y="0" xlink:href="img_03.png" width="135" height="124" /></g></g></g><g clip-path="url(#5)"><g transform="matrix(-0.180679 0 0 0.1629524 154.22 331.21)"><g transform="matrix(1 0 0 1 0 0)"><image x="0" y="0" xlink:href="img_01.png" width="405" height="735" /></g></g></g><path id="314" transform="matrix(1 0 0 -1 0 841)" d="M78.799 548.73C 75.486 548.73 72.799 546.04 72.799 542.73L72.799 542.73L72.799 391.73C 72.799 388.42 75.486 385.73 78.799 385.73L78.799 385.73L229.4 385.73C 232.71 385.73 235.4 388.42 235.4 391.73L235.4 391.73L235.4 542.73C 235.4 546.04 232.71 548.73 229.4 548.73z" stroke="#5B9BD5" stroke-width="1" fill="none" /><path id="323" transform="matrix(1 0 0 -1 0 841)" d="M315.72 372.48C 313.4 372.48 311.51 370.6 311.51 368.28L311.51 368.28L311.51 221.43C 311.51 219.11 313.4 217.23 315.72 217.23L315.72 217.23L491.81 217.23C 494.13 217.23 496.01 219.11 496.01 221.43L496.01 221.43L496.01 368.28C 496.01 370.6 494.13 372.48 491.81 372.48z" stroke="#5B9BD5" stroke-width="1" fill="none" /><path id="326" transform="matrix(1 0 0 -1 0 841)" d="M101.42 372.48C 98.718 372.48 96.526 370.29 96.526 367.59L96.526 367.59L96.526 222.12C 96.526 219.42 98.718 217.23 101.42 217.23L101.42 217.23L274.36 217.23C 277.07 217.23 279.26 219.42 279.26 222.12L279.26 222.12L279.26 367.59C 279.26 370.29 277.07 372.48 274.36 372.48z" stroke="#5B9BD5" stroke-width="1" fill="none" /><path id="329" transform="matrix(1 0 0 -1 0 841)" d="M104.33 202.66C 101.85 202.66 99.833 200.64 99.833 198.16L99.833 198.16L99.833 52.658C 99.833 50.176 101.85 48.159 104.33 48.159L104.33 48.159L278.07 48.159C 280.55 48.159 282.57 50.176 282.57 52.658L282.57 52.658L282.57 198.16C 282.57 200.64 280.55 202.66 278.07 202.66z" stroke="#5B9BD5" stroke-width="1" fill="none" /><g clip-path="url(#6)"><g transform="matrix(0.2945569 0 0 0.2945619 127.1 677.02)"><g transform="matrix(1 0 0 1 0 0)"><image x="0" y="0" xlink:href="img_04.png" width="395" height="331" /></g></g></g><g clip-path="url(#7)"><g transform="matrix(0.4601201 0 0 0.4601095 320.3 642.879)"><g transform="matrix(1 0 0 1 0 0)"><image x="0" y="0" xlink:href="img_05.png" width="333" height="274" /></g></g></g><path id="370" transform="matrix(1 0 0 -1 0 841)" d="M315.19 202.66C 313.46 202.66 312.05 201.25 312.05 199.52L312.05 199.52L312.05 51.299C 312.05 49.568 313.46 48.159 315.19 48.159L315.19 48.159L493.4 48.159C 495.14 48.159 496.54 49.568 496.54 51.299L496.54 51.299L496.54 199.52C 496.54 201.25 495.14 202.66 493.4 202.66z" stroke="#5B9BD5" stroke-width="1" fill="none" /><path id="386" transform="matrix(1 0 0 -1 0 841)" d="M378.8 727.42L534.85 727.42L534.85 727.42L534.85 793.788L534.85 793.788L378.8 793.788z" stroke="#D9D9D9" stroke-width="1" fill="none" /><path id="396" transform="matrix(1 0 0 -1 0 841)" d="M78.641 793.78C 71.23 793.78 65.22 787.77 65.22 780.36L65.22 780.36L65.22 740.84C 65.22 733.43 71.23 727.42 78.641 727.42L78.641 727.42L351.55 727.42C 358.96 727.42 364.97 733.43 364.97 740.84L364.97 740.84L364.97 780.36C 364.97 787.77 358.96 793.78 351.55 793.78z" stroke="none" fill="#DFEBF7" fill-rule="evenodd" /><path id="397" transform="matrix(1 0 0 -1 0 841)" d="M78.641 793.78C 71.23 793.78 65.22 787.77 65.22 780.36L65.22 780.36L65.22 740.84C 65.22 733.43 71.23 727.42 78.641 727.42L78.641 727.42L351.55 727.42C 358.96 727.42 364.97 733.43 364.97 740.84L364.97 740.84L364.97 780.36C 364.97 787.77 358.96 793.78 351.55 793.78z" stroke="#BED7EF" stroke-width="2" fill="none" /><path id="423" transform="matrix(1 0 0 -1 0 841)" d="M66.671 589.75L67.031 589.75L67.031 589.75L67.031 686.117L67.031 686.117L66.671 686.117z" stroke="none" fill="#DFEBF7" fill-rule="evenodd" /><path id="424" transform="matrix(1 0 0 -1 0 841)" d="M184.23 589.75L184.59 589.75L184.59 589.75L184.59 685.867L184.59 685.867L184.23 685.867z" stroke="none" fill="#DFEBF7" fill-rule="evenodd" /><path id="425" transform="matrix(1 0 0 -1 0 841)" d="M301.92 589.75L302.28 589.75L302.28 589.75L302.28 685.867L302.28 685.867L301.92 685.867z" stroke="none" fill="#DFEBF7" fill-rule="evenodd" /><path id="426" transform="matrix(1 0 0 -1 0 841)" d="M419.61 589.75L419.97 589.75L419.97 589.75L419.97 685.867L419.97 685.867L419.61 685.867z" stroke="none" fill="#DFEBF7" fill-rule="evenodd" /><path id="427" transform="matrix(1 0 0 -1 0 841)" d="M537.06 589.75L537.42 589.75L537.42 589.75L537.42 686.117L537.42 686.117L537.06 686.117z" stroke="none" fill="#DFEBF7" fill-rule="evenodd" /><path id="428" transform="matrix(1 0 0 -1 0 841)" d="M66.671 685.76L537.421 685.76L537.421 685.76L537.421 686.12L537.421 686.12L66.671 686.12z" stroke="none" fill="#DFEBF7" fill-rule="evenodd" /><path id="429" transform="matrix(1 0 0 -1 0 841)" d="M66.921 661.96L537.171 661.96L537.171 661.96L537.171 662.32L537.171 662.32L66.921 662.32z" stroke="none" fill="#DFEBF7" fill-rule="evenodd" /><path id="430" transform="matrix(1 0 0 -1 0 841)" d="M66.921 637.73L537.171 637.73L537.171 637.73L537.171 638.09L537.171 638.09L66.921 638.09z" stroke="none" fill="#DFEBF7" fill-rule="evenodd" /><path id="431" transform="matrix(1 0 0 -1 0 841)" d="M66.921 613.5L537.171 613.5L537.171 613.5L537.171 613.86L537.171 613.86L66.921 613.86z" stroke="none" fill="#DFEBF7" fill-rule="evenodd" /><path id="432" transform="matrix(1 0 0 -1 0 841)" d="M66.671 589.5L537.421 589.5L537.421 589.5L537.421 589.86L537.421 589.86L66.671 589.86z" stroke="none" fill="#DFEBF7" fill-rule="evenodd" /></g></g></svg>