<svg xmlns="http://www.w3.org/2000/svg" xmlns:xlink="http://www.w3.org/1999/xlink" id="body_1" preserveAspectRatio="xMinYMin meet" viewBox="0 0 793 1121"><defs><clipPath id="1"><path id="" clip-rule="evenodd" transform="matrix(1 0 0 1 0 0)" d="M0 841L0 -0.9199829L0 -0.9199829L595.32 -0.9199829L595.32 -0.9199829L595.32 841L595.32 841L0 841z" /></clipPath></defs><g transform="matrix(1.333333 0 0 1.333333 0 0)"><g clip-path="url(#1)"><path id="1" transform="matrix(1 0 0 -1 0 841)" d="M37.524 275.75L206.154 275.75L206.154 275.75L206.154 802.98L206.154 802.98L37.524 802.98z" stroke="#9CBAD5" stroke-width="2" fill="none" /><path id="2" transform="matrix(1 0 0 -1 0 841)" d="M37.499 775.91L206.159 775.91L206.159 775.91L206.159 802.224L206.159 802.224L37.499 802.224z" stroke="none" fill="#CEDDEA" fill-rule="evenodd" /><path id="94" transform="matrix(1 0 0 -1 0 841)" d="M42.359 283.42L42.719 283.42L42.719 283.42L42.719 774.54L42.719 774.54L42.359 774.54z" stroke="none" fill="#D9D9D9" fill-rule="evenodd" /><path id="95" transform="matrix(1 0 0 -1 0 841)" d="M92.503 283.42L92.863 283.42L92.863 283.42L92.863 774.29L92.863 774.29L92.503 774.29z" stroke="none" fill="#D9D9D9" fill-rule="evenodd" /><path id="96" transform="matrix(1 0 0 -1 0 841)" d="M151.03 283.42L151.39 283.42L151.39 283.42L151.39 774.29L151.39 774.29L151.03 774.29z" stroke="none" fill="#D9D9D9" fill-rule="evenodd" /><path id="97" transform="matrix(1 0 0 -1 0 841)" d="M203.45 283.42L203.81 283.42L203.81 283.42L203.81 774.54L203.81 774.54L203.45 774.54z" stroke="none" fill="#D9D9D9" fill-rule="evenodd" /><path id="98" transform="matrix(1 0 0 -1 0 841)" d="M42.359 774.18L203.809 774.18L203.809 774.18L203.809 774.54L203.809 774.54L42.359 774.54z" stroke="none" fill="#D9D9D9" fill-rule="evenodd" /><path id="99" transform="matrix(1 0 0 -1 0 841)" d="M42.609 741.7L203.559 741.7L203.559 741.7L203.559 742.06L203.559 742.06L42.609 742.06z" stroke="none" fill="#D9D9D9" fill-rule="evenodd" /><path id="100" transform="matrix(1 0 0 -1 0 841)" d="M42.609 706.84L203.559 706.84L203.559 706.84L203.559 707.2L203.559 707.2L42.609 707.2z" stroke="none" fill="#D9D9D9" fill-rule="evenodd" /><path id="101" transform="matrix(1 0 0 -1 0 841)" d="M42.609 671.98L203.559 671.98L203.559 671.98L203.559 672.34L203.559 672.34L42.609 672.34z" stroke="none" fill="#D9D9D9" fill-rule="evenodd" /><path id="102" transform="matrix(1 0 0 -1 0 841)" d="M42.609 637.12L203.559 637.12L203.559 637.12L203.559 637.48L203.559 637.48L42.609 637.48z" stroke="none" fill="#D9D9D9" fill-rule="evenodd" /><path id="103" transform="matrix(1 0 0 -1 0 841)" d="M42.609 602.26L203.559 602.26L203.559 602.26L203.559 602.62L203.559 602.62L42.609 602.62z" stroke="none" fill="#D9D9D9" fill-rule="evenodd" /><path id="104" transform="matrix(1 0 0 -1 0 841)" d="M42.609 567.4L203.559 567.4L203.559 567.4L203.559 567.76L203.559 567.76L42.609 567.76z" stroke="none" fill="#D9D9D9" fill-rule="evenodd" /><path id="105" transform="matrix(1 0 0 -1 0 841)" d="M42.609 532.54L203.559 532.54L203.559 532.54L203.559 532.9L203.559 532.9L42.609 532.9z" stroke="none" fill="#D9D9D9" fill-rule="evenodd" /><path id="106" transform="matrix(1 0 0 -1 0 841)" d="M42.609 497.68L203.559 497.68L203.559 497.68L203.559 498.04L203.559 498.04L42.609 498.04z" stroke="none" fill="#D9D9D9" fill-rule="evenodd" /><path id="107" transform="matrix(1 0 0 -1 0 841)" d="M42.609 427.96L203.559 427.96L203.559 427.96L203.559 428.32L203.559 428.32L42.609 428.32z" stroke="none" fill="#D9D9D9" fill-rule="evenodd" /><path id="108" transform="matrix(1 0 0 -1 0 841)" d="M42.609 393.09L203.559 393.09L203.559 393.09L203.559 393.45L203.559 393.45L42.609 393.45z" stroke="none" fill="#D9D9D9" fill-rule="evenodd" /><path id="109" transform="matrix(1 0 0 -1 0 841)" d="M42.609 462.82L203.559 462.82L203.559 462.82L203.559 463.18L203.559 463.18L42.609 463.18z" stroke="none" fill="#D9D9D9" fill-rule="evenodd" /><path id="110" transform="matrix(1 0 0 -1 0 841)" d="M42.609 356.42L203.559 356.42L203.559 356.42L203.559 356.78L203.559 356.78L42.609 356.78z" stroke="none" fill="#D9D9D9" fill-rule="evenodd" /><path id="111" transform="matrix(1 0 0 -1 0 841)" d="M42.609 319.74L203.559 319.74L203.559 319.74L203.559 320.1L203.559 320.1L42.609 320.1z" stroke="none" fill="#D9D9D9" fill-rule="evenodd" /><path id="112" transform="matrix(1 0 0 -1 0 841)" d="M42.359 283.17L203.809 283.17L203.809 283.17L203.809 283.53L203.809 283.53L42.359 283.53z" stroke="none" fill="#D9D9D9" fill-rule="evenodd" /><path id="113" transform="matrix(1 0 0 -1 0 841)" d="M214.45 274.91L388.19 274.91L388.19 274.91L388.19 804.08L388.19 804.08L214.45 804.08z" stroke="#9CBAD5" stroke-width="2" fill="none" /><path id="114" transform="matrix(1 0 0 -1 0 841)" d="M215.12 775.9L385.59 775.9L385.59 775.9L385.59 802.549L385.59 802.549L215.12 802.549z" stroke="none" fill="#CEDDEA" fill-rule="evenodd" /><path id="182" transform="matrix(1 0 0 -1 0 841)" d="M217.53 431.46L217.89 431.46L217.89 431.46L217.89 774.69L217.89 774.69L217.53 774.69z" stroke="none" fill="#D9D9D9" fill-rule="evenodd" /><path id="183" transform="matrix(1 0 0 -1 0 841)" d="M270.55 431.46L270.91 431.46L270.91 431.46L270.91 774.44L270.91 774.44L270.55 774.44z" stroke="none" fill="#D9D9D9" fill-rule="evenodd" /><path id="184" transform="matrix(1 0 0 -1 0 841)" d="M331.74 431.46L332.1 431.46L332.1 431.46L332.1 774.44L332.1 774.44L331.74 774.44z" stroke="none" fill="#D9D9D9" fill-rule="evenodd" /><path id="185" transform="matrix(1 0 0 -1 0 841)" d="M383.23 431.46L383.59 431.46L383.59 431.46L383.59 774.69L383.59 774.69L383.23 774.69z" stroke="none" fill="#D9D9D9" fill-rule="evenodd" /><path id="186" transform="matrix(1 0 0 -1 0 841)" d="M217.53 774.33L383.59 774.33L383.59 774.33L383.59 774.69L383.59 774.69L217.53 774.69z" stroke="none" fill="#D9D9D9" fill-rule="evenodd" /><path id="187" transform="matrix(1 0 0 -1 0 841)" d="M217.78 743.72L383.34 743.72L383.34 743.72L383.34 744.08L383.34 744.08L217.78 744.08z" stroke="none" fill="#D9D9D9" fill-rule="evenodd" /><path id="188" transform="matrix(1 0 0 -1 0 841)" d="M217.78 712.99L383.34 712.99L383.34 712.99L383.34 713.35L383.34 713.35L217.78 713.35z" stroke="none" fill="#D9D9D9" fill-rule="evenodd" /><path id="189" transform="matrix(1 0 0 -1 0 841)" d="M217.78 682.25L383.34 682.25L383.34 682.25L383.34 682.61L383.34 682.61L217.78 682.61z" stroke="none" fill="#D9D9D9" fill-rule="evenodd" /><path id="190" transform="matrix(1 0 0 -1 0 841)" d="M217.78 651.52L383.34 651.52L383.34 651.52L383.34 651.88L383.34 651.88L217.78 651.88z" stroke="none" fill="#D9D9D9" fill-rule="evenodd" /><path id="191" transform="matrix(1 0 0 -1 0 841)" d="M217.78 620.79L383.34 620.79L383.34 620.79L383.34 621.15L383.34 621.15L217.78 621.15z" stroke="none" fill="#D9D9D9" fill-rule="evenodd" /><path id="192" transform="matrix(1 0 0 -1 0 841)" d="M217.78 584.64L383.34 584.64L383.34 584.64L383.34 585L383.34 585L217.78 585z" stroke="none" fill="#D9D9D9" fill-rule="evenodd" /><path id="193" transform="matrix(1 0 0 -1 0 841)" d="M217.78 553.91L383.34 553.91L383.34 553.91L383.34 554.27L383.34 554.27L217.78 554.27z" stroke="none" fill="#D9D9D9" fill-rule="evenodd" /><path id="194" transform="matrix(1 0 0 -1 0 841)" d="M217.78 523.17L383.34 523.17L383.34 523.17L383.34 523.53L383.34 523.53L217.78 523.53z" stroke="none" fill="#D9D9D9" fill-rule="evenodd" /><path id="195" transform="matrix(1 0 0 -1 0 841)" d="M217.78 492.44L383.34 492.44L383.34 492.44L383.34 492.8L383.34 492.8L217.78 492.8z" stroke="none" fill="#D9D9D9" fill-rule="evenodd" /><path id="196" transform="matrix(1 0 0 -1 0 841)" d="M217.78 461.71L383.34 461.71L383.34 461.71L383.34 462.07L383.34 462.07L217.78 462.07z" stroke="none" fill="#D9D9D9" fill-rule="evenodd" /><path id="197" transform="matrix(1 0 0 -1 0 841)" d="M217.53 431.21L383.59 431.21L383.59 431.21L383.59 431.57L383.59 431.57L217.53 431.57z" stroke="none" fill="#D9D9D9" fill-rule="evenodd" /><path id="198" transform="matrix(1 0 0 -1 0 841)" d="M393.36 274.94L556.89 274.94L556.89 274.94L556.89 802.97L556.89 802.97L393.36 802.97z" stroke="#9CBAD5" stroke-width="2" fill="none" /><path id="199" transform="matrix(1 0 0 -1 0 841)" d="M394.12 775.62L554.55 775.62L554.55 775.62L554.55 801.758L554.55 801.758L394.12 801.758z" stroke="none" fill="#CEDDEA" fill-rule="evenodd" /><path id="230" transform="matrix(1 0 0 -1 0 841)" d="M397.42 560.89L397.78 560.89L397.78 560.89L397.78 773.17L397.78 773.17L397.42 773.17z" stroke="none" fill="#D9D9D9" fill-rule="evenodd" /><path id="231" transform="matrix(1 0 0 -1 0 841)" d="M447.72 560.89L448.08 560.89L448.08 560.89L448.08 772.92L448.08 772.92L447.72 772.92z" stroke="none" fill="#D9D9D9" fill-rule="evenodd" /><path id="232" transform="matrix(1 0 0 -1 0 841)" d="M503 560.89L503.36 560.89L503.36 560.89L503.36 772.92L503.36 772.92L503 772.92z" stroke="none" fill="#D9D9D9" fill-rule="evenodd" /><path id="233" transform="matrix(1 0 0 -1 0 841)" d="M554.02 560.89L554.38 560.89L554.38 560.89L554.38 773.17L554.38 773.17L554.02 773.17z" stroke="none" fill="#D9D9D9" fill-rule="evenodd" /><path id="234" transform="matrix(1 0 0 -1 0 841)" d="M397.42 772.81L554.38 772.81L554.38 772.81L554.38 773.17L554.38 773.17L397.42 773.17z" stroke="none" fill="#D9D9D9" fill-rule="evenodd" /><path id="235" transform="matrix(1 0 0 -1 0 841)" d="M397.67 742.75L554.13 742.75L554.13 742.75L554.13 743.11L554.13 743.11L397.67 743.11z" stroke="none" fill="#D9D9D9" fill-rule="evenodd" /><path id="236" transform="matrix(1 0 0 -1 0 841)" d="M397.67 713.81L554.13 713.81L554.13 713.81L554.13 714.17L554.13 714.17L397.67 714.17z" stroke="none" fill="#D9D9D9" fill-rule="evenodd" /><path id="237" transform="matrix(1 0 0 -1 0 841)" d="M397.67 684.87L554.13 684.87L554.13 684.87L554.13 685.23L554.13 685.23L397.67 685.23z" stroke="none" fill="#D9D9D9" fill-rule="evenodd" /><path id="238" transform="matrix(1 0 0 -1 0 841)" d="M397.67 655.93L554.13 655.93L554.13 655.93L554.13 656.29L554.13 656.29L397.67 656.29z" stroke="none" fill="#D9D9D9" fill-rule="evenodd" /><path id="239" transform="matrix(1 0 0 -1 0 841)" d="M397.67 626.99L554.13 626.99L554.13 626.99L554.13 627.35L554.13 627.35L397.67 627.35z" stroke="none" fill="#D9D9D9" fill-rule="evenodd" /><path id="240" transform="matrix(1 0 0 -1 0 841)" d="M397.67 594.26L554.13 594.26L554.13 594.26L554.13 594.62L554.13 594.62L397.67 594.62z" stroke="none" fill="#D9D9D9" fill-rule="evenodd" /><path id="241" transform="matrix(1 0 0 -1 0 841)" d="M397.42 560.64L554.38 560.64L554.38 560.64L554.38 561L554.38 561L397.42 561z" stroke="none" fill="#D9D9D9" fill-rule="evenodd" /><path id="242" transform="matrix(1 0 0 -1 0 841)" d="M394.12 520.76L556.98 520.76L556.98 520.76L556.98 548.453L556.98 548.453L394.12 548.453z" stroke="none" fill="#CEDDEA" fill-rule="evenodd" /><path id="281" transform="matrix(1 0 0 -1 0 841)" d="M396.61 280.3L396.97 280.3L396.97 280.3L396.97 519.89L396.97 519.89L396.61 519.89z" stroke="none" fill="#D9D9D9" fill-rule="evenodd" /><path id="282" transform="matrix(1 0 0 -1 0 841)" d="M442.17 280.3L442.53 280.3L442.53 280.3L442.53 519.64L442.53 519.64L442.17 519.64z" stroke="none" fill="#D9D9D9" fill-rule="evenodd" /><path id="283" transform="matrix(1 0 0 -1 0 841)" d="M503.7 280.3L504.06 280.3L504.06 280.3L504.06 519.64L504.06 519.64L503.7 519.64z" stroke="none" fill="#D9D9D9" fill-rule="evenodd" /><path id="284" transform="matrix(1 0 0 -1 0 841)" d="M554.49 280.3L554.85 280.3L554.85 280.3L554.85 519.89L554.85 519.89L554.49 519.89z" stroke="none" fill="#D9D9D9" fill-rule="evenodd" /><path id="285" transform="matrix(1 0 0 -1 0 841)" d="M396.61 519.52L554.85 519.52L554.85 519.52L554.85 519.88L554.85 519.88L396.61 519.88z" stroke="none" fill="#D9D9D9" fill-rule="evenodd" /><path id="286" transform="matrix(1 0 0 -1 0 841)" d="M396.86 489.91L554.6 489.91L554.6 489.91L554.6 490.27L554.6 490.27L396.86 490.27z" stroke="none" fill="#D9D9D9" fill-rule="evenodd" /><path id="287" transform="matrix(1 0 0 -1 0 841)" d="M396.86 460.16L554.6 460.16L554.6 460.16L554.6 460.52L554.6 460.52L396.86 460.52z" stroke="none" fill="#D9D9D9" fill-rule="evenodd" /><path id="288" transform="matrix(1 0 0 -1 0 841)" d="M396.86 430.42L554.6 430.42L554.6 430.42L554.6 430.78L554.6 430.78L396.86 430.78z" stroke="none" fill="#D9D9D9" fill-rule="evenodd" /><path id="289" transform="matrix(1 0 0 -1 0 841)" d="M396.86 398.79L554.6 398.79L554.6 398.79L554.6 399.15L554.6 399.15L396.86 399.15z" stroke="none" fill="#D9D9D9" fill-rule="evenodd" /><path id="290" transform="matrix(1 0 0 -1 0 841)" d="M396.86 369.04L554.6 369.04L554.6 369.04L554.6 369.4L554.6 369.4L396.86 369.4z" stroke="none" fill="#D9D9D9" fill-rule="evenodd" /><path id="291" transform="matrix(1 0 0 -1 0 841)" d="M396.86 339.3L554.6 339.3L554.6 339.3L554.6 339.66L554.6 339.66L396.86 339.66z" stroke="none" fill="#D9D9D9" fill-rule="evenodd" /><path id="292" transform="matrix(1 0 0 -1 0 841)" d="M396.86 309.56L554.6 309.56L554.6 309.56L554.6 309.92L554.6 309.92L396.86 309.92z" stroke="none" fill="#D9D9D9" fill-rule="evenodd" /><path id="293" transform="matrix(1 0 0 -1 0 841)" d="M396.61 280.05L554.85 280.05L554.85 280.05L554.85 280.41L554.85 280.41L396.61 280.41z" stroke="none" fill="#D9D9D9" fill-rule="evenodd" /><path id="294" transform="matrix(1 0 0 -1 0 841)" d="M222.27 395.45L380.05 395.45L380.05 395.45L380.05 425.956L380.05 425.956L222.27 425.956z" stroke="none" fill="#CEDDEA" fill-rule="evenodd" /><path id="348" transform="matrix(1 0 0 -1 0 841)" d="M224.16 282.85L224.52 282.85L224.52 282.85L224.52 392.17L224.52 392.17L224.16 392.17z" stroke="none" fill="#D9D9D9" fill-rule="evenodd" /><path id="349" transform="matrix(1 0 0 -1 0 841)" d="M267.03 282.85L267.39 282.85L267.39 282.85L267.39 391.92L267.39 391.92L267.03 391.92z" stroke="none" fill="#D9D9D9" fill-rule="evenodd" /><path id="350" transform="matrix(1 0 0 -1 0 841)" d="M332.22 282.85L332.58 282.85L332.58 282.85L332.58 391.92L332.58 391.92L332.22 391.92z" stroke="none" fill="#D9D9D9" fill-rule="evenodd" /><path id="351" transform="matrix(1 0 0 -1 0 841)" d="M380.72 282.85L381.08 282.85L381.08 282.85L381.08 392.17L381.08 392.17L380.72 392.17z" stroke="none" fill="#D9D9D9" fill-rule="evenodd" /><path id="352" transform="matrix(1 0 0 -1 0 841)" d="M224.15 391.81L381.08 391.81L381.08 391.81L381.08 392.17L381.08 392.17L224.15 392.17z" stroke="none" fill="#D9D9D9" fill-rule="evenodd" /><path id="353" transform="matrix(1 0 0 -1 0 841)" d="M224.4 364.54L380.83 364.54L380.83 364.54L380.83 364.9L380.83 364.9L224.4 364.9z" stroke="none" fill="#D9D9D9" fill-rule="evenodd" /><path id="354" transform="matrix(1 0 0 -1 0 841)" d="M224.4 337.15L380.83 337.15L380.83 337.15L380.83 337.51L380.83 337.51L224.4 337.51z" stroke="none" fill="#D9D9D9" fill-rule="evenodd" /><path id="355" transform="matrix(1 0 0 -1 0 841)" d="M224.4 309.76L380.83 309.76L380.83 309.76L380.83 310.12L380.83 310.12L224.4 310.12z" stroke="none" fill="#D9D9D9" fill-rule="evenodd" /><path id="356" transform="matrix(1 0 0 -1 0 841)" d="M224.15 282.6L381.08 282.6L381.08 282.6L381.08 282.96L381.08 282.96L224.15 282.96z" stroke="none" fill="#D9D9D9" fill-rule="evenodd" /><path id="357" transform="matrix(1 0 0 -1 0 841)" d="M391.65 43.134L559.39 43.134L559.39 43.134L559.39 247.194L559.39 247.194L391.65 247.194z" stroke="#9CBAD5" stroke-width="2" fill="none" /><path id="358" transform="matrix(1 0 0 -1 0 841)" d="M211.98 43.134L387.05 43.134L387.05 43.134L387.05 248.094L387.05 248.094L211.98 248.094z" stroke="#9CBAD5" stroke-width="2" fill="none" /><path id="359" transform="matrix(1 0 0 -1 0 841)" d="M36.848 43.135L204.588 43.135L204.588 43.135L204.588 247.975L204.588 247.975L36.848 247.975z" stroke="#9CBAD5" stroke-width="2" fill="none" /><path id="360" transform="matrix(1 0 0 -1 0 841)" d="M37.232 219.4L202.872 219.4L202.872 219.4L202.872 246.521L202.872 246.521L37.232 246.521z" stroke="none" fill="#CEDDEA" fill-rule="evenodd" /><path id="379" transform="matrix(1 0 0 -1 0 841)" d="M42.093 155.6L42.453 155.6L42.453 155.6L42.453 217.881L42.453 217.881L42.093 217.881z" stroke="none" fill="#D9D9D9" fill-rule="evenodd" /><path id="380" transform="matrix(1 0 0 -1 0 841)" d="M85.633 155.6L85.993 155.6L85.993 155.6L85.993 217.631L85.993 217.631L85.633 217.631z" stroke="none" fill="#D9D9D9" fill-rule="evenodd" /><path id="381" transform="matrix(1 0 0 -1 0 841)" d="M149.77 155.6L150.13 155.6L150.13 155.6L150.13 217.631L150.13 217.631L149.77 217.631z" stroke="none" fill="#D9D9D9" fill-rule="evenodd" /><path id="382" transform="matrix(1 0 0 -1 0 841)" d="M199.12 155.6L199.48 155.6L199.48 155.6L199.48 217.881L199.48 217.881L199.12 217.881z" stroke="none" fill="#D9D9D9" fill-rule="evenodd" /><path id="383" transform="matrix(1 0 0 -1 0 841)" d="M42.093 217.53L199.473 217.53L199.473 217.53L199.473 217.89L199.473 217.89L42.093 217.89z" stroke="none" fill="#D9D9D9" fill-rule="evenodd" /><path id="384" transform="matrix(1 0 0 -1 0 841)" d="M42.343 186.38L199.223 186.38L199.223 186.38L199.223 186.74L199.223 186.74L42.343 186.74z" stroke="none" fill="#D9D9D9" fill-rule="evenodd" /><path id="385" transform="matrix(1 0 0 -1 0 841)" d="M42.093 155.35L199.473 155.35L199.473 155.35L199.473 155.71L199.473 155.71L42.093 155.71z" stroke="none" fill="#D9D9D9" fill-rule="evenodd" /><path id="408" transform="matrix(1 0 0 -1 0 841)" d="M395.65 48.441L396.01 48.441L396.01 48.441L396.01 216.801L396.01 216.801L395.65 216.801z" stroke="none" fill="#D9D9D9" fill-rule="evenodd" /><path id="409" transform="matrix(1 0 0 -1 0 841)" d="M440.05 48.441L440.41 48.441L440.41 48.441L440.41 216.551L440.41 216.551L440.05 216.551z" stroke="none" fill="#D9D9D9" fill-rule="evenodd" /><path id="410" transform="matrix(1 0 0 -1 0 841)" d="M505.45 48.441L505.81 48.441L505.81 48.441L505.81 216.551L505.81 216.551L505.45 216.551z" stroke="none" fill="#D9D9D9" fill-rule="evenodd" /><path id="411" transform="matrix(1 0 0 -1 0 841)" d="M555.77 48.441L556.13 48.441L556.13 48.441L556.13 216.801L556.13 216.801L555.77 216.801z" stroke="none" fill="#D9D9D9" fill-rule="evenodd" /><path id="412" transform="matrix(1 0 0 -1 0 841)" d="M395.65 216.44L556.13 216.44L556.13 216.44L556.13 216.8L556.13 216.8L395.65 216.8z" stroke="none" fill="#D9D9D9" fill-rule="evenodd" /><path id="413" transform="matrix(1 0 0 -1 0 841)" d="M395.9 177.79L555.88 177.79L555.88 177.79L555.88 178.15L555.88 178.15L395.9 178.15z" stroke="none" fill="#D9D9D9" fill-rule="evenodd" /><path id="414" transform="matrix(1 0 0 -1 0 841)" d="M395.9 133.17L555.88 133.17L555.88 133.17L555.88 133.53L555.88 133.53L395.9 133.53z" stroke="none" fill="#D9D9D9" fill-rule="evenodd" /><path id="415" transform="matrix(1 0 0 -1 0 841)" d="M395.9 91.995L555.88 91.995L555.88 91.995L555.88 92.355L555.88 92.355L395.9 92.355z" stroke="none" fill="#D9D9D9" fill-rule="evenodd" /><path id="416" transform="matrix(1 0 0 -1 0 841)" d="M395.65 48.191L556.13 48.191L556.13 48.191L556.13 48.55099L556.13 48.55099L395.65 48.55099z" stroke="none" fill="#D9D9D9" fill-rule="evenodd" /><path id="417" transform="matrix(1 0 0 -1 0 841)" d="M393.3 220.75L558.61 220.75L558.61 220.75L558.61 246.416L558.61 246.416L393.3 246.416z" stroke="none" fill="#CEDDEA" fill-rule="evenodd" /><path id="439" transform="matrix(1 0 0 -1 0 841)" d="M44.955 48.464L45.315 48.464L45.315 48.464L45.315 110.745L45.315 110.745L44.955 110.745z" stroke="none" fill="#D9D9D9" fill-rule="evenodd" /><path id="440" transform="matrix(1 0 0 -1 0 841)" d="M85.827 48.464L86.187 48.464L86.187 48.464L86.187 110.495L86.187 110.495L85.827 110.495z" stroke="none" fill="#D9D9D9" fill-rule="evenodd" /><path id="441" transform="matrix(1 0 0 -1 0 841)" d="M146.05 48.464L146.41 48.464L146.41 48.464L146.41 110.495L146.41 110.495L146.05 110.495z" stroke="none" fill="#D9D9D9" fill-rule="evenodd" /><path id="442" transform="matrix(1 0 0 -1 0 841)" d="M198.33 48.464L198.69 48.464L198.69 48.464L198.69 110.745L198.69 110.745L198.33 110.745z" stroke="none" fill="#D9D9D9" fill-rule="evenodd" /><path id="443" transform="matrix(1 0 0 -1 0 841)" d="M44.955 110.39L198.695 110.39L198.695 110.39L198.695 110.75L198.695 110.75L44.955 110.75z" stroke="none" fill="#D9D9D9" fill-rule="evenodd" /><path id="444" transform="matrix(1 0 0 -1 0 841)" d="M45.205 79.245L198.445 79.245L198.445 79.245L198.445 79.605L198.445 79.605L45.205 79.605z" stroke="none" fill="#D9D9D9" fill-rule="evenodd" /><path id="445" transform="matrix(1 0 0 -1 0 841)" d="M44.955 48.214L198.695 48.214L198.695 48.214L198.695 48.57399L198.695 48.57399L44.955 48.57399z" stroke="none" fill="#D9D9D9" fill-rule="evenodd" /><path id="446" transform="matrix(1 0 0 -1 0 841)" d="M37.108 113.05L202.238 113.05L202.238 113.05L202.238 137.572L202.238 137.572L37.108 137.572z" stroke="none" fill="#CEDDEA" fill-rule="evenodd" /><path id="468" transform="matrix(1 0 0 -1 0 841)" d="M215.46 156.97L215.82 156.97L215.82 156.97L215.82 217.585L215.82 217.585L215.46 217.585z" stroke="none" fill="#D9D9D9" fill-rule="evenodd" /><path id="469" transform="matrix(1 0 0 -1 0 841)" d="M260.07 156.97L260.43 156.97L260.43 156.97L260.43 217.335L260.43 217.335L260.07 217.335z" stroke="none" fill="#D9D9D9" fill-rule="evenodd" /><path id="470" transform="matrix(1 0 0 -1 0 841)" d="M325.8 156.97L326.16 156.97L326.16 156.97L326.16 217.335L326.16 217.335L325.8 217.335z" stroke="none" fill="#D9D9D9" fill-rule="evenodd" /><path id="471" transform="matrix(1 0 0 -1 0 841)" d="M382.87 156.97L383.23 156.97L383.23 156.97L383.23 217.585L383.23 217.585L382.87 217.585z" stroke="none" fill="#D9D9D9" fill-rule="evenodd" /><path id="472" transform="matrix(1 0 0 -1 0 841)" d="M215.46 217.23L383.24 217.23L383.24 217.23L383.24 217.59L383.24 217.59L215.46 217.59z" stroke="none" fill="#D9D9D9" fill-rule="evenodd" /><path id="473" transform="matrix(1 0 0 -1 0 841)" d="M215.71 185.5L382.99 185.5L382.99 185.5L382.99 185.86L382.99 185.86L215.71 185.86z" stroke="none" fill="#D9D9D9" fill-rule="evenodd" /><path id="474" transform="matrix(1 0 0 -1 0 841)" d="M215.46 156.72L383.24 156.72L383.24 156.72L383.24 157.08L383.24 157.08L215.46 157.08z" stroke="none" fill="#D9D9D9" fill-rule="evenodd" /><path id="475" transform="matrix(1 0 0 -1 0 841)" d="M211.64 220.97L385.84 220.97L385.84 220.97L385.84 247.821L385.84 247.821L211.64 247.821z" stroke="none" fill="#CEDDEA" fill-rule="evenodd" /><path id="500" transform="matrix(1 0 0 -1 0 841)" d="M219.16 50.006L219.52 50.006L219.52 50.006L219.52 111.479L219.52 111.479L219.16 111.479z" stroke="none" fill="#D9D9D9" fill-rule="evenodd" /><path id="501" transform="matrix(1 0 0 -1 0 841)" d="M263.78 50.006L264.14 50.006L264.14 50.006L264.14 111.229L264.14 111.229L263.78 111.229z" stroke="none" fill="#D9D9D9" fill-rule="evenodd" /><path id="502" transform="matrix(1 0 0 -1 0 841)" d="M329.51 50.006L329.87 50.006L329.87 50.006L329.87 111.229L329.87 111.229L329.51 111.229z" stroke="none" fill="#D9D9D9" fill-rule="evenodd" /><path id="503" transform="matrix(1 0 0 -1 0 841)" d="M386.58 50.006L386.94 50.006L386.94 50.006L386.94 111.479L386.94 111.479L386.58 111.479z" stroke="none" fill="#D9D9D9" fill-rule="evenodd" /><path id="504" transform="matrix(1 0 0 -1 0 841)" d="M219.16 111.12L386.94 111.12L386.94 111.12L386.94 111.48L386.94 111.48L219.16 111.48z" stroke="none" fill="#D9D9D9" fill-rule="evenodd" /><path id="505" transform="matrix(1 0 0 -1 0 841)" d="M219.41 78.529L386.69 78.529L386.69 78.529L386.69 78.88899L386.69 78.88899L219.41 78.88899z" stroke="none" fill="#D9D9D9" fill-rule="evenodd" /><path id="506" transform="matrix(1 0 0 -1 0 841)" d="M219.16 49.756L386.94 49.756L386.94 49.756L386.94 50.11599L386.94 50.11599L219.16 50.11599z" stroke="none" fill="#D9D9D9" fill-rule="evenodd" /><path id="507" transform="matrix(1 0 0 -1 0 841)" d="M212.1 113.83L386.3 113.83L386.3 113.83L386.3 138.352L386.3 138.352L212.1 138.352z" stroke="none" fill="#CEDDEA" fill-rule="evenodd" /></g></g></svg>