<svg xmlns="http://www.w3.org/2000/svg" xmlns:xlink="http://www.w3.org/1999/xlink" id="body_1" preserveAspectRatio="xMinYMin meet" viewBox="0 0 793 1121"><defs><clipPath id="1"><path id="" clip-rule="evenodd" transform="matrix(1 0 0 1 0 0)" d="M0 841L0 -0.9199829L0 -0.9199829L595.32 -0.9199829L595.32 -0.9199829L595.32 841L595.32 841L0 841z" /></clipPath><clipPath id="2"><path id="" clip-rule="evenodd" transform="matrix(1 0 0 1 0 0)" d="M35.154 185.77L257.494 185.77L257.494 185.77L257.494 25.80005L257.494 25.80005L35.154 25.80005z" /></clipPath><clipPath id="3"><path id="" clip-rule="evenodd" transform="matrix(1 0 0 1 0 0)" d="M284.22 784.58C 278.45 784.58 273.77 779.9 273.77 774.13L273.77 774.13L273.77 731.21C 273.77 725.44 278.45 720.76 284.22 720.76L284.22 720.76L295.52 720.76C 301.29 720.76 305.97 725.44 305.97 731.21L305.97 731.21L305.97 774.13C 305.97 779.9 301.29 784.58 295.52 784.58z" /></clipPath><linearGradient gradientUnits="userSpaceOnUse" transform="matrix(1 0 0 1 0 0)" id="813" x1="289.72" y1="787.48" x2="289.72" y2="717.48"><stop stop-color="#9DC3E6" offset="0%" /><stop stop-color="#9DC3E6" offset="1%" /><stop stop-color="#9CC3E6" offset="2%" /><stop stop-color="#9CC2E6" offset="3%" /><stop stop-color="#9CC2E6" offset="4%" /><stop stop-color="#9BC2E5" offset="5%" /><stop stop-color="#9BC1E5" offset="6%" /><stop stop-color="#9AC1E5" offset="7%" /><stop stop-color="#9AC1E5" offset="8%" /><stop stop-color="#99C0E5" offset="9%" /><stop stop-color="#98C0E4" offset="10%" /><stop stop-color="#97BFE4" offset="11%" /><stop stop-color="#96BEE4" offset="12%" /><stop stop-color="#95BEE4" offset="13%" /><stop stop-color="#94BDE3" offset="14%" /><stop stop-color="#93BCE3" offset="15%" /><stop stop-color="#91BBE2" offset="16%" /><stop stop-color="#90BAE2" offset="17%" /><stop stop-color="#8EB9E1" offset="18%" /><stop stop-color="#8DB8E1" offset="19%" /><stop stop-color="#8BB7E1" offset="20%" /><stop stop-color="#89B5E0" offset="21%" /><stop stop-color="#87B4DF" offset="22%" /><stop stop-color="#85B3DF" offset="23%" /><stop stop-color="#83B2DE" offset="24%" /><stop stop-color="#81B0DE" offset="25%" /><stop stop-color="#7FAFDD" offset="26%" /><stop stop-color="#7DAEDD" offset="27%" /><stop stop-color="#7BACDC" offset="28%" /><stop stop-color="#78ABDB" offset="29%" /><stop stop-color="#76AADB" offset="30%" /><stop stop-color="#74A8DA" offset="31%" /><stop stop-color="#72A7DA" offset="32%" /><stop stop-color="#70A6D9" offset="33%" /><stop stop-color="#6EA5D9" offset="34%" /><stop stop-color="#6CA4D9" offset="35%" /><stop stop-color="#6AA3D8" offset="36%" /><stop stop-color="#68A2D8" offset="37%" /><stop stop-color="#67A1D7" offset="38%" /><stop stop-color="#65A0D7" offset="39%" /><stop stop-color="#649FD7" offset="40%" /><stop stop-color="#629FD6" offset="41%" /><stop stop-color="#619ED6" offset="42%" /><stop stop-color="#609ED6" offset="43%" /><stop stop-color="#5F9DD6" offset="44%" /><stop stop-color="#5E9DD6" offset="45%" /><stop stop-color="#5D9CD5" offset="46%" /><stop stop-color="#5D9CD5" offset="47%" /><stop stop-color="#5C9BD5" offset="48%" /><stop stop-color="#5B9BD5" offset="49%" /><stop stop-color="#5B9BD5" offset="50%" /><stop stop-color="#5B9BD5" offset="51%" /><stop stop-color="#5C9BD5" offset="52%" /><stop stop-color="#5D9CD5" offset="53%" /><stop stop-color="#5D9CD5" offset="54%" /><stop stop-color="#5E9DD6" offset="55%" /><stop stop-color="#5F9DD6" offset="56%" /><stop stop-color="#609ED6" offset="57%" /><stop stop-color="#619ED6" offset="58%" /><stop stop-color="#629FD6" offset="59%" /><stop stop-color="#649FD7" offset="60%" /><stop stop-color="#65A0D7" offset="61%" /><stop stop-color="#67A1D7" offset="62%" /><stop stop-color="#68A2D8" offset="63%" /><stop stop-color="#6AA3D8" offset="64%" /><stop stop-color="#6CA4D8" offset="65%" /><stop stop-color="#6EA5D9" offset="66%" /><stop stop-color="#70A6D9" offset="67%" /><stop stop-color="#72A7DA" offset="68%" /><stop stop-color="#74A8DA" offset="69%" /><stop stop-color="#76AADB" offset="70%" /><stop stop-color="#78ABDB" offset="71%" /><stop stop-color="#7BACDC" offset="72%" /><stop stop-color="#7DAEDD" offset="73%" /><stop stop-color="#7FAFDD" offset="74%" /><stop stop-color="#81B0DE" offset="75%" /><stop stop-color="#83B2DE" offset="76%" /><stop stop-color="#85B3DF" offset="77%" /><stop stop-color="#87B4DF" offset="78%" /><stop stop-color="#89B5E0" offset="79%" /><stop stop-color="#8BB7E1" offset="80%" /><stop stop-color="#8DB8E1" offset="81%" /><stop stop-color="#8EB9E1" offset="82%" /><stop stop-color="#90BAE2" offset="83%" /><stop stop-color="#91BBE2" offset="84%" /><stop stop-color="#93BCE3" offset="85%" /><stop stop-color="#94BDE3" offset="86%" /><stop stop-color="#95BEE4" offset="87%" /><stop stop-color="#96BEE4" offset="88%" /><stop stop-color="#97BFE4" offset="89%" /><stop stop-color="#98C0E4" offset="90%" /><stop stop-color="#99C0E5" offset="91%" /><stop stop-color="#9AC1E5" offset="92%" /><stop stop-color="#9AC1E5" offset="93%" /><stop stop-color="#9BC1E5" offset="94%" /><stop stop-color="#9BC2E5" offset="95%" /><stop stop-color="#9CC2E6" offset="96%" /><stop stop-color="#9CC2E6" offset="97%" /><stop stop-color="#9CC3E6" offset="98%" /><stop stop-color="#9DC3E6" offset="99%" /><stop stop-color="#9DC3E6" offset="100%" /></linearGradient><clipPath id="4"><path id="" clip-rule="evenodd" transform="matrix(1 0 0 1 0 0)" d="M284.22 784.58C 278.45 784.58 273.77 779.9 273.77 774.13L273.77 774.13L273.77 731.21C 273.77 725.44 278.45 720.76 284.22 720.76L284.22 720.76L295.52 720.76C 301.29 720.76 305.97 725.44 305.97 731.21L305.97 731.21L305.97 774.13C 305.97 779.9 301.29 784.58 295.52 784.58z" /></clipPath><clipPath id="5"><path id="" clip-rule="evenodd" transform="matrix(1 0 0 1 0 0)" d="M284.22 784.58C 278.45 784.58 273.77 779.9 273.77 774.13L273.77 774.13L273.77 731.21C 273.77 725.44 278.45 720.76 284.22 720.76L284.22 720.76L295.52 720.76C 301.29 720.76 305.97 725.44 305.97 731.21L305.97 731.21L305.97 774.13C 305.97 779.9 301.29 784.58 295.52 784.58z" /></clipPath><clipPath id="6"><path id="" clip-rule="evenodd" transform="matrix(1 0 0 1 0 0)" d="M31.924 415.39L243.284 415.39L243.284 415.39L243.284 263.32L243.284 263.32L31.924 263.32z" /></clipPath><clipPath id="7"><path id="" clip-rule="evenodd" transform="matrix(1 0 0 1 0 0)" d="M50.576 659.05L233.876 659.05L233.876 659.05L233.876 547.46L233.876 547.46L50.576 547.46z" /></clipPath><clipPath id="8"><path id="" clip-rule="evenodd" transform="matrix(1 0 0 1 0 0)" d="M46.171 674.09L131.036 674.09L131.036 674.09L131.036 662.353L131.036 662.353L46.171 662.353z" /></clipPath><clipPath id="9"><path id="" clip-rule="evenodd" transform="matrix(1 0 0 1 0 0)" d="M158.37 674.43L243.235 674.43L243.235 674.43L243.235 662.693L243.235 662.693L158.37 662.693z" /></clipPath><clipPath id="10"><path id="" clip-rule="evenodd" transform="matrix(1 0 0 1 0 0)" d="M284.37 269.56C 278.6 269.56 273.92 264.88 273.92 259.11L273.92 259.11L273.92 216.19C 273.92 210.42 278.6 205.74 284.37 205.74L284.37 205.74L295.67 205.74C 301.44 205.74 306.12 210.42 306.12 216.19L306.12 216.19L306.12 259.11C 306.12 264.88 301.44 269.56 295.67 269.56z" /></clipPath><linearGradient gradientUnits="userSpaceOnUse" transform="matrix(1 0 0 1 0 0)" id="7099" x1="289.72" y1="272.48" x2="289.72" y2="202.48"><stop stop-color="#9DC3E6" offset="0%" /><stop stop-color="#9DC3E6" offset="1%" /><stop stop-color="#9CC3E6" offset="2%" /><stop stop-color="#9CC2E6" offset="3%" /><stop stop-color="#9CC2E6" offset="4%" /><stop stop-color="#9BC2E5" offset="5%" /><stop stop-color="#9BC1E5" offset="6%" /><stop stop-color="#9AC1E5" offset="7%" /><stop stop-color="#9AC1E5" offset="8%" /><stop stop-color="#99C0E5" offset="9%" /><stop stop-color="#98C0E4" offset="10%" /><stop stop-color="#97BFE4" offset="11%" /><stop stop-color="#96BEE4" offset="12%" /><stop stop-color="#95BEE4" offset="13%" /><stop stop-color="#94BDE3" offset="14%" /><stop stop-color="#93BCE3" offset="15%" /><stop stop-color="#91BBE2" offset="16%" /><stop stop-color="#90BAE2" offset="17%" /><stop stop-color="#8EB9E1" offset="18%" /><stop stop-color="#8DB8E1" offset="19%" /><stop stop-color="#8BB7E1" offset="20%" /><stop stop-color="#89B5E0" offset="21%" /><stop stop-color="#87B4DF" offset="22%" /><stop stop-color="#85B3DF" offset="23%" /><stop stop-color="#83B2DE" offset="24%" /><stop stop-color="#81B0DE" offset="25%" /><stop stop-color="#7FAFDD" offset="26%" /><stop stop-color="#7DAEDD" offset="27%" /><stop stop-color="#7BACDC" offset="28%" /><stop stop-color="#78ABDB" offset="29%" /><stop stop-color="#76AADB" offset="30%" /><stop stop-color="#74A8DA" offset="31%" /><stop stop-color="#72A7DA" offset="32%" /><stop stop-color="#70A6D9" offset="33%" /><stop stop-color="#6EA5D9" offset="34%" /><stop stop-color="#6CA4D9" offset="35%" /><stop stop-color="#6AA3D8" offset="36%" /><stop stop-color="#68A2D8" offset="37%" /><stop stop-color="#67A1D7" offset="38%" /><stop stop-color="#65A0D7" offset="39%" /><stop stop-color="#649FD7" offset="40%" /><stop stop-color="#629FD6" offset="41%" /><stop stop-color="#619ED6" offset="42%" /><stop stop-color="#609ED6" offset="43%" /><stop stop-color="#5F9DD6" offset="44%" /><stop stop-color="#5E9DD6" offset="45%" /><stop stop-color="#5D9CD5" offset="46%" /><stop stop-color="#5D9CD5" offset="47%" /><stop stop-color="#5C9BD5" offset="48%" /><stop stop-color="#5B9BD5" offset="49%" /><stop stop-color="#5B9BD5" offset="50%" /><stop stop-color="#5B9BD5" offset="51%" /><stop stop-color="#5C9BD5" offset="52%" /><stop stop-color="#5D9CD5" offset="53%" /><stop stop-color="#5D9CD5" offset="54%" /><stop stop-color="#5E9DD6" offset="55%" /><stop stop-color="#5F9DD6" offset="56%" /><stop stop-color="#609ED6" offset="57%" /><stop stop-color="#619ED6" offset="58%" /><stop stop-color="#629FD6" offset="59%" /><stop stop-color="#649FD7" offset="60%" /><stop stop-color="#65A0D7" offset="61%" /><stop stop-color="#67A1D7" offset="62%" /><stop stop-color="#68A2D8" offset="63%" /><stop stop-color="#6AA3D8" offset="64%" /><stop stop-color="#6CA4D8" offset="65%" /><stop stop-color="#6EA5D9" offset="66%" /><stop stop-color="#70A6D9" offset="67%" /><stop stop-color="#72A7DA" offset="68%" /><stop stop-color="#74A8DA" offset="69%" /><stop stop-color="#76AADB" offset="70%" /><stop stop-color="#78ABDB" offset="71%" /><stop stop-color="#7BACDC" offset="72%" /><stop stop-color="#7DAEDD" offset="73%" /><stop stop-color="#7FAFDD" offset="74%" /><stop stop-color="#81B0DE" offset="75%" /><stop stop-color="#83B2DE" offset="76%" /><stop stop-color="#85B3DF" offset="77%" /><stop stop-color="#87B4DF" offset="78%" /><stop stop-color="#89B5E0" offset="79%" /><stop stop-color="#8BB7E1" offset="80%" /><stop stop-color="#8DB8E1" offset="81%" /><stop stop-color="#8EB9E1" offset="82%" /><stop stop-color="#90BAE2" offset="83%" /><stop stop-color="#91BBE2" offset="84%" /><stop stop-color="#93BCE3" offset="85%" /><stop stop-color="#94BDE3" offset="86%" /><stop stop-color="#95BEE4" offset="87%" /><stop stop-color="#96BEE4" offset="88%" /><stop stop-color="#97BFE4" offset="89%" /><stop stop-color="#98C0E4" offset="90%" /><stop stop-color="#99C0E5" offset="91%" /><stop stop-color="#9AC1E5" offset="92%" /><stop stop-color="#9AC1E5" offset="93%" /><stop stop-color="#9BC1E5" offset="94%" /><stop stop-color="#9BC2E5" offset="95%" /><stop stop-color="#9CC2E6" offset="96%" /><stop stop-color="#9CC2E6" offset="97%" /><stop stop-color="#9CC3E6" offset="98%" /><stop stop-color="#9DC3E6" offset="99%" /><stop stop-color="#9DC3E6" offset="100%" /></linearGradient><clipPath id="11"><path id="" clip-rule="evenodd" transform="matrix(1 0 0 1 0 0)" d="M284.37 269.56C 278.6 269.56 273.92 264.88 273.92 259.11L273.92 259.11L273.92 216.19C 273.92 210.42 278.6 205.74 284.37 205.74L284.37 205.74L295.67 205.74C 301.44 205.74 306.12 210.42 306.12 216.19L306.12 216.19L306.12 259.11C 306.12 264.88 301.44 269.56 295.67 269.56z" /></clipPath><clipPath id="12"><path id="" clip-rule="evenodd" transform="matrix(1 0 0 1 0 0)" d="M284.37 269.56C 278.6 269.56 273.92 264.88 273.92 259.11L273.92 259.11L273.92 216.19C 273.92 210.42 278.6 205.74 284.37 205.74L284.37 205.74L295.67 205.74C 301.44 205.74 306.12 210.42 306.12 216.19L306.12 216.19L306.12 259.11C 306.12 264.88 301.44 269.56 295.67 269.56z" /></clipPath><clipPath id="13"><path id="" clip-rule="evenodd" transform="matrix(1 0 0 1 0 0)" d="M286.21 537.6C 280.44 537.6 275.76 532.92 275.76 527.15L275.76 527.15L275.76 484.23C 275.76 478.46 280.44 473.79 286.21 473.79L286.21 473.79L297.51 473.79C 303.28 473.79 307.96 478.46 307.96 484.23L307.96 484.23L307.96 527.15C 307.96 532.92 303.28 537.6 297.51 537.6z" /></clipPath><linearGradient gradientUnits="userSpaceOnUse" transform="matrix(1 0 0 1 0 0)" id="12556" x1="291.72" y1="540.48" x2="291.72" y2="470.48"><stop stop-color="#9DC3E6" offset="0%" /><stop stop-color="#9DC3E6" offset="1%" /><stop stop-color="#9CC3E6" offset="2%" /><stop stop-color="#9CC2E6" offset="3%" /><stop stop-color="#9CC2E6" offset="4%" /><stop stop-color="#9BC2E5" offset="5%" /><stop stop-color="#9BC1E5" offset="6%" /><stop stop-color="#9AC1E5" offset="7%" /><stop stop-color="#9AC1E5" offset="8%" /><stop stop-color="#99C0E5" offset="9%" /><stop stop-color="#98C0E4" offset="10%" /><stop stop-color="#97BFE4" offset="11%" /><stop stop-color="#96BEE4" offset="12%" /><stop stop-color="#95BEE4" offset="13%" /><stop stop-color="#94BDE3" offset="14%" /><stop stop-color="#93BCE3" offset="15%" /><stop stop-color="#91BBE2" offset="16%" /><stop stop-color="#90BAE2" offset="17%" /><stop stop-color="#8EB9E1" offset="18%" /><stop stop-color="#8DB8E1" offset="19%" /><stop stop-color="#8BB7E1" offset="20%" /><stop stop-color="#89B5E0" offset="21%" /><stop stop-color="#87B4DF" offset="22%" /><stop stop-color="#85B3DF" offset="23%" /><stop stop-color="#83B2DE" offset="24%" /><stop stop-color="#81B0DE" offset="25%" /><stop stop-color="#7FAFDD" offset="26%" /><stop stop-color="#7DAEDD" offset="27%" /><stop stop-color="#7BACDC" offset="28%" /><stop stop-color="#78ABDB" offset="29%" /><stop stop-color="#76AADB" offset="30%" /><stop stop-color="#74A8DA" offset="31%" /><stop stop-color="#72A7DA" offset="32%" /><stop stop-color="#70A6D9" offset="33%" /><stop stop-color="#6EA5D9" offset="34%" /><stop stop-color="#6CA4D9" offset="35%" /><stop stop-color="#6AA3D8" offset="36%" /><stop stop-color="#68A2D8" offset="37%" /><stop stop-color="#67A1D7" offset="38%" /><stop stop-color="#65A0D7" offset="39%" /><stop stop-color="#649FD7" offset="40%" /><stop stop-color="#629FD6" offset="41%" /><stop stop-color="#619ED6" offset="42%" /><stop stop-color="#609ED6" offset="43%" /><stop stop-color="#5F9DD6" offset="44%" /><stop stop-color="#5E9DD6" offset="45%" /><stop stop-color="#5D9CD5" offset="46%" /><stop stop-color="#5D9CD5" offset="47%" /><stop stop-color="#5C9BD5" offset="48%" /><stop stop-color="#5B9BD5" offset="49%" /><stop stop-color="#5B9BD5" offset="50%" /><stop stop-color="#5B9BD5" offset="51%" /><stop stop-color="#5C9BD5" offset="52%" /><stop stop-color="#5D9CD5" offset="53%" /><stop stop-color="#5D9CD5" offset="54%" /><stop stop-color="#5E9DD6" offset="55%" /><stop stop-color="#5F9DD6" offset="56%" /><stop stop-color="#609ED6" offset="57%" /><stop stop-color="#619ED6" offset="58%" /><stop stop-color="#629FD6" offset="59%" /><stop stop-color="#649FD7" offset="60%" /><stop stop-color="#65A0D7" offset="61%" /><stop stop-color="#67A1D7" offset="62%" /><stop stop-color="#68A2D8" offset="63%" /><stop stop-color="#6AA3D8" offset="64%" /><stop stop-color="#6CA4D8" offset="65%" /><stop stop-color="#6EA5D9" offset="66%" /><stop stop-color="#70A6D9" offset="67%" /><stop stop-color="#72A7DA" offset="68%" /><stop stop-color="#74A8DA" offset="69%" /><stop stop-color="#76AADB" offset="70%" /><stop stop-color="#78ABDB" offset="71%" /><stop stop-color="#7BACDC" offset="72%" /><stop stop-color="#7DAEDD" offset="73%" /><stop stop-color="#7FAFDD" offset="74%" /><stop stop-color="#81B0DE" offset="75%" /><stop stop-color="#83B2DE" offset="76%" /><stop stop-color="#85B3DF" offset="77%" /><stop stop-color="#87B4DF" offset="78%" /><stop stop-color="#89B5E0" offset="79%" /><stop stop-color="#8BB7E1" offset="80%" /><stop stop-color="#8DB8E1" offset="81%" /><stop stop-color="#8EB9E1" offset="82%" /><stop stop-color="#90BAE2" offset="83%" /><stop stop-color="#91BBE2" offset="84%" /><stop stop-color="#93BCE3" offset="85%" /><stop stop-color="#94BDE3" offset="86%" /><stop stop-color="#95BEE4" offset="87%" /><stop stop-color="#96BEE4" offset="88%" /><stop stop-color="#97BFE4" offset="89%" /><stop stop-color="#98C0E4" offset="90%" /><stop stop-color="#99C0E5" offset="91%" /><stop stop-color="#9AC1E5" offset="92%" /><stop stop-color="#9AC1E5" offset="93%" /><stop stop-color="#9BC1E5" offset="94%" /><stop stop-color="#9BC2E5" offset="95%" /><stop stop-color="#9CC2E6" offset="96%" /><stop stop-color="#9CC2E6" offset="97%" /><stop stop-color="#9CC3E6" offset="98%" /><stop stop-color="#9DC3E6" offset="99%" /><stop stop-color="#9DC3E6" offset="100%" /></linearGradient><clipPath id="14"><path id="" clip-rule="evenodd" transform="matrix(1 0 0 1 0 0)" d="M286.21 537.6C 280.44 537.6 275.76 532.92 275.76 527.15L275.76 527.15L275.76 484.23C 275.76 478.46 280.44 473.79 286.21 473.79L286.21 473.79L297.51 473.79C 303.28 473.79 307.96 478.46 307.96 484.23L307.96 484.23L307.96 527.15C 307.96 532.92 303.28 537.6 297.51 537.6z" /></clipPath><clipPath id="15"><path id="" clip-rule="evenodd" transform="matrix(1 0 0 1 0 0)" d="M286.21 537.6C 280.44 537.6 275.76 532.92 275.76 527.15L275.76 527.15L275.76 484.23C 275.76 478.46 280.44 473.79 286.21 473.79L286.21 473.79L297.51 473.79C 303.28 473.79 307.96 478.46 307.96 484.23L307.96 484.23L307.96 527.15C 307.96 532.92 303.28 537.6 297.51 537.6z" /></clipPath></defs><g transform="matrix(1.333333 0 0 1.333333 0 0)"><g clip-path="url(#1)"><g clip-path="url(#2)"><g transform="matrix(0.3231686 0 0 0.3231717 35.154 25.80005)"><g transform="matrix(1 0 0 1 0 0)"><image x="0" y="0" xlink:href="img_01.png" width="688" height="495" /></g></g></g><path id="28" transform="matrix(1 0 0 -1 0 841)" d="M51.292 806.76C 44.988 806.76 39.88 801.65 39.88 795.35L39.88 795.35L39.88 591.54C 39.88 585.24 44.988 580.13 51.292 580.13L51.292 580.13L243.56 580.13C 249.87 580.13 254.98 585.24 254.98 591.54L254.98 591.54L254.98 795.35C 254.98 801.65 249.87 806.76 243.56 806.76z" stroke="#9DC3E6" stroke-width="3" fill="none" /><path id="29" transform="matrix(1 0 0 -1 0 841)" d="M279.94 692.08C 273.83 692.08 268.88 687.13 268.88 681.02L268.88 681.02L268.88 599.57C 268.88 593.45 273.83 588.5 279.94 588.5L279.94 588.5L392.9 588.5C 399.02 588.5 403.97 593.45 403.97 599.57L403.97 599.57L403.97 681.02C 403.97 687.13 399.02 692.08 392.9 692.08z" stroke="#9DC3E6" stroke-width="2" fill="none" /><path id="78" transform="matrix(1 0 0 -1 0 841)" d="M422.36 691.33C 416.35 691.33 411.47 686.46 411.47 680.44L411.47 680.44L411.47 600.33C 411.47 594.32 416.35 589.44 422.36 589.44L422.36 589.44L539.35 589.44C 545.37 589.44 550.25 594.32 550.25 600.33L550.25 600.33L550.25 680.44C 550.25 686.46 545.37 691.33 539.35 691.33z" stroke="#9DC3E6" stroke-width="2" fill="none" /><g transform="matrix(0.24 0 0 0.24 274.2 57.76001)"><g transform="matrix(1 0 0 1 0 0)"><image x="0" y="0" xlink:href="img_02.png" width="139" height="271" /></g></g><path id="132" transform="matrix(1 0 0 -1 0 841)" clip-path="url(#3)" d="M0 787.48L595 787.48L595 787.48L595 717.48L595 717.48L0 717.48" stroke="none" fill="url(#813)" /><path id="133" transform="matrix(1 0 0 -1 0 841)" clip-path="url(#4)" d="M0 787.48L595 787.48L595 787.48L595 841L595 841L0 841" stroke="none" fill="#9DC3E6" fill-rule="evenodd" /><path id="134" transform="matrix(1 0 0 -1 0 841)" clip-path="url(#5)" d="M0 717.48L595 717.48L595 717.48L595 0L595 0L0 0" stroke="none" fill="#9DC3E6" fill-rule="evenodd" /><path id="135" transform="matrix(1 0 0 -1 0 841)" d="M284.22 784.58C 278.45 784.58 273.77 779.9 273.77 774.13L273.77 774.13L273.77 731.21C 273.77 725.44 278.45 720.76 284.22 720.76L284.22 720.76L295.52 720.76C 301.29 720.76 305.97 725.44 305.97 731.21L305.97 731.21L305.97 774.13C 305.97 779.9 301.29 784.58 295.52 784.58z" stroke="none" fill="none" /><path id="136" transform="matrix(1 0 0 -1 0 841)" d="M284.22 784.58C 278.45 784.58 273.77 779.9 273.77 774.13L273.77 774.13L273.77 731.21C 273.77 725.44 278.45 720.76 284.22 720.76L284.22 720.76L295.52 720.76C 301.29 720.76 305.97 725.44 305.97 731.21L305.97 731.21L305.97 774.13C 305.97 779.9 301.29 784.58 295.52 784.58z" stroke="#5B9BD5" stroke-width="1" fill="none" /><g transform="matrix(0.06 0 0 0.06 283.85 64.85999)"><g transform="matrix(1 0 0 1 0 0)"><image x="0" y="0" xlink:href="img_03.png" width="400" height="228" /></g></g><g transform="matrix(0.06 0 0 0.06 283.85 92.22003)"><g transform="matrix(1 0 0 1 0 0)"><image x="0" y="0" xlink:href="img_04.png" width="400" height="228" /></g></g><path id="139" transform="matrix(1 0 0 -1 0 841)" d="M271.37 804.88C 266.46 804.88 262.47 800.89 262.47 795.98L262.47 795.98L262.47 589.03C 262.47 584.12 266.46 580.13 271.37 580.13L271.37 580.13L548.1 580.13C 553.01 580.13 557 584.12 557 589.03L557 589.03L557 795.98C 557 800.89 553.01 804.88 548.1 804.88z" stroke="#9DC3E6" stroke-width="3" fill="none" /><path id="166" transform="matrix(1 0 0 -1 0 841)" d="M328.11 794.89C 322.92 794.89 318.72 790.69 318.72 785.5L318.72 785.5L318.72 718.72C 318.72 713.53 322.92 709.33 328.11 709.33L328.11 709.33L539.36 709.33C 544.54 709.33 548.75 713.53 548.75 718.72L548.75 718.72L548.75 785.5C 548.75 790.69 544.54 794.89 539.36 794.89z" stroke="#BED7EF" stroke-width="2" fill="none" /><g clip-path="url(#6)"><g transform="matrix(0.3356049 0 0 0.3356374 31.924 280.5)"><g transform="matrix(1 0 0 1 0 0)"><image x="0" y="0" xlink:href="img_05.png" width="653" height="353" /></g></g></g><path id="168" transform="matrix(1 0 0 -1 0 841)" d="M49.112 564.16C 42.809 564.16 37.7 559.05 37.7 552.75L37.7 552.75L37.7 321.04C 37.7 314.73 42.809 309.63 49.112 309.63L49.112 309.63L241.38 309.63C 247.69 309.63 252.8 314.73 252.8 321.04L252.8 321.04L252.8 552.75C 252.8 559.05 247.69 564.16 241.38 564.16z" stroke="#9DC3E6" stroke-width="3" fill="none" /><path id="169" transform="matrix(1 0 0 -1 0 841)" d="M272.14 299.75C 266.58 299.75 262.07 295.24 262.07 289.68L262.07 289.68L262.07 55.294C 262.07 49.732 266.58 45.219 272.14 45.219L272.14 45.219L546.52 45.219C 552.08 45.219 556.59 49.732 556.59 55.294L556.59 55.294L556.59 289.68C 556.59 295.24 552.08 299.75 546.52 299.75z" stroke="#9DC3E6" stroke-width="3" fill="none" /><g transform="matrix(0.24 0 0 0.2372727 46.2 407.32)"><g transform="matrix(1 0 0 1 0 0)"><image x="0" y="0" xlink:href="img_06.png" width="44" height="44" /></g></g><g transform="matrix(0.2372093 0 0 0.2372727 56.28 407.32)"><g transform="matrix(1 0 0 1 0 0)"><image x="0" y="0" xlink:href="img_07.png" width="43" height="44" /></g></g><g transform="matrix(0.24 0 0 0.2372727 66 407.32)"><g transform="matrix(1 0 0 1 0 0)"><image x="0" y="0" xlink:href="img_07.png" width="43" height="44" /></g></g><g transform="matrix(0.2372093 0 0 0.2372727 75.84 407.32)"><g transform="matrix(1 0 0 1 0 0)"><image x="0" y="0" xlink:href="img_07.png" width="43" height="44" /></g></g><g transform="matrix(0.24 0 0 0.2372727 85.56 407.32)"><g transform="matrix(1 0 0 1 0 0)"><image x="0" y="0" xlink:href="img_07.png" width="43" height="44" /></g></g><g transform="matrix(0.2372093 0 0 0.2372727 95.4 407.32)"><g transform="matrix(1 0 0 1 0 0)"><image x="0" y="0" xlink:href="img_07.png" width="43" height="44" /></g></g><g transform="matrix(0.24 0 0 0.2372727 105.12 407.32)"><g transform="matrix(1 0 0 1 0 0)"><image x="0" y="0" xlink:href="img_07.png" width="43" height="44" /></g></g><g transform="matrix(0.2372093 0 0 0.2372727 114.96 407.32)"><g transform="matrix(1 0 0 1 0 0)"><image x="0" y="0" xlink:href="img_07.png" width="43" height="44" /></g></g><g transform="matrix(0.24 0 0 0.2372727 124.68 407.32)"><g transform="matrix(1 0 0 1 0 0)"><image x="0" y="0" xlink:href="img_07.png" width="43" height="44" /></g></g><g transform="matrix(0.2372093 0 0 0.2372727 134.52 407.32)"><g transform="matrix(1 0 0 1 0 0)"><image x="0" y="0" xlink:href="img_07.png" width="43" height="44" /></g></g><g transform="matrix(0.24 0 0 0.2372727 144.24 407.32)"><g transform="matrix(1 0 0 1 0 0)"><image x="0" y="0" xlink:href="img_07.png" width="43" height="44" /></g></g><g transform="matrix(0.2372093 0 0 0.2372727 154.08 407.32)"><g transform="matrix(1 0 0 1 0 0)"><image x="0" y="0" xlink:href="img_07.png" width="43" height="44" /></g></g><g transform="matrix(0.24 0 0 0.2372727 163.8 407.32)"><g transform="matrix(1 0 0 1 0 0)"><image x="0" y="0" xlink:href="img_07.png" width="43" height="44" /></g></g><g transform="matrix(0.2372093 0 0 0.2372727 173.64 407.32)"><g transform="matrix(1 0 0 1 0 0)"><image x="0" y="0" xlink:href="img_07.png" width="43" height="44" /></g></g><g transform="matrix(0.24 0 0 0.2372727 183.36 407.32)"><g transform="matrix(1 0 0 1 0 0)"><image x="0" y="0" xlink:href="img_07.png" width="43" height="44" /></g></g><g transform="matrix(0.2372093 0 0 0.2372727 193.2 407.32)"><g transform="matrix(1 0 0 1 0 0)"><image x="0" y="0" xlink:href="img_07.png" width="43" height="44" /></g></g><g transform="matrix(0.24 0 0 0.2372727 202.92 407.32)"><g transform="matrix(1 0 0 1 0 0)"><image x="0" y="0" xlink:href="img_07.png" width="43" height="44" /></g></g><g transform="matrix(0.2372093 0 0 0.2372727 212.76 407.32)"><g transform="matrix(1 0 0 1 0 0)"><image x="0" y="0" xlink:href="img_07.png" width="43" height="44" /></g></g><g transform="matrix(0.24 0 0 0.2372727 222.48 407.32)"><g transform="matrix(1 0 0 1 0 0)"><image x="0" y="0" xlink:href="img_07.png" width="43" height="44" /></g></g><g transform="matrix(0.2372727 0 0 0.2372727 232.32 407.32)"><g transform="matrix(1 0 0 1 0 0)"><image x="0" y="0" xlink:href="img_08.png" width="44" height="44" /></g></g><g transform="matrix(0.24 0 0 0.24 46.2 417.28)"><g transform="matrix(1 0 0 1 0 0)"><image x="0" y="0" xlink:href="img_09.png" width="44" height="42" /></g></g><g transform="matrix(0.24 0 0 0.2371429 46.2 426.88)"><g transform="matrix(1 0 0 1 0 0)"><image x="0" y="0" xlink:href="img_09.png" width="44" height="42" /></g></g><g transform="matrix(0.24 0 0 0.2371429 46.2 436.36)"><g transform="matrix(1 0 0 1 0 0)"><image x="0" y="0" xlink:href="img_09.png" width="44" height="42" /></g></g><g transform="matrix(0.24 0 0 0.24 46.2 445.84)"><g transform="matrix(1 0 0 1 0 0)"><image x="0" y="0" xlink:href="img_09.png" width="44" height="42" /></g></g><g transform="matrix(0.24 0 0 0.2371429 46.2 455.44)"><g transform="matrix(1 0 0 1 0 0)"><image x="0" y="0" xlink:href="img_09.png" width="44" height="42" /></g></g><g transform="matrix(0.24 0 0 0.24 46.2 464.92)"><g transform="matrix(1 0 0 1 0 0)"><image x="0" y="0" xlink:href="img_09.png" width="44" height="42" /></g></g><g transform="matrix(0.24 0 0 0.2371429 46.2 474.52)"><g transform="matrix(1 0 0 1 0 0)"><image x="0" y="0" xlink:href="img_09.png" width="44" height="42" /></g></g><g transform="matrix(0.24 0 0 0.2371429 46.2 484)"><g transform="matrix(1 0 0 1 0 0)"><image x="0" y="0" xlink:href="img_09.png" width="44" height="42" /></g></g><g transform="matrix(0.24 0 0 0.24 46.2 493.48)"><g transform="matrix(1 0 0 1 0 0)"><image x="0" y="0" xlink:href="img_09.png" width="44" height="42" /></g></g><g transform="matrix(0.24 0 0 0.2371429 46.2 503.08)"><g transform="matrix(1 0 0 1 0 0)"><image x="0" y="0" xlink:href="img_09.png" width="44" height="42" /></g></g><g transform="matrix(0.2372727 0 0 0.24 232.32 417.28)"><g transform="matrix(1 0 0 1 0 0)"><image x="0" y="0" xlink:href="img_10.png" width="44" height="42" /></g></g><g transform="matrix(0.2372727 0 0 0.2371429 232.32 426.88)"><g transform="matrix(1 0 0 1 0 0)"><image x="0" y="0" xlink:href="img_10.png" width="44" height="42" /></g></g><g transform="matrix(0.2372727 0 0 0.2371429 232.32 436.36)"><g transform="matrix(1 0 0 1 0 0)"><image x="0" y="0" xlink:href="img_10.png" width="44" height="42" /></g></g><g transform="matrix(0.2372727 0 0 0.24 232.32 445.84)"><g transform="matrix(1 0 0 1 0 0)"><image x="0" y="0" xlink:href="img_10.png" width="44" height="42" /></g></g><g transform="matrix(0.2372727 0 0 0.2371429 232.32 455.44)"><g transform="matrix(1 0 0 1 0 0)"><image x="0" y="0" xlink:href="img_10.png" width="44" height="42" /></g></g><g transform="matrix(0.2372727 0 0 0.24 232.32 464.92)"><g transform="matrix(1 0 0 1 0 0)"><image x="0" y="0" xlink:href="img_10.png" width="44" height="42" /></g></g><g transform="matrix(0.2372727 0 0 0.2371429 232.32 474.52)"><g transform="matrix(1 0 0 1 0 0)"><image x="0" y="0" xlink:href="img_10.png" width="44" height="42" /></g></g><g transform="matrix(0.2372727 0 0 0.2371429 232.32 484)"><g transform="matrix(1 0 0 1 0 0)"><image x="0" y="0" xlink:href="img_10.png" width="44" height="42" /></g></g><g transform="matrix(0.2372727 0 0 0.24 232.32 493.48)"><g transform="matrix(1 0 0 1 0 0)"><image x="0" y="0" xlink:href="img_10.png" width="44" height="42" /></g></g><g transform="matrix(0.2372727 0 0 0.2371429 232.32 503.08)"><g transform="matrix(1 0 0 1 0 0)"><image x="0" y="0" xlink:href="img_10.png" width="44" height="42" /></g></g><g transform="matrix(0.24 0 0 0.2372727 46.2 512.56)"><g transform="matrix(1 0 0 1 0 0)"><image x="0" y="0" xlink:href="img_11.png" width="44" height="44" /></g></g><g transform="matrix(0.2372093 0 0 0.2372727 56.28 512.56)"><g transform="matrix(1 0 0 1 0 0)"><image x="0" y="0" xlink:href="img_12.png" width="43" height="44" /></g></g><g transform="matrix(0.24 0 0 0.2372727 66 512.56)"><g transform="matrix(1 0 0 1 0 0)"><image x="0" y="0" xlink:href="img_12.png" width="43" height="44" /></g></g><g transform="matrix(0.2372093 0 0 0.2372727 75.84 512.56)"><g transform="matrix(1 0 0 1 0 0)"><image x="0" y="0" xlink:href="img_12.png" width="43" height="44" /></g></g><g transform="matrix(0.24 0 0 0.2372727 85.56 512.56)"><g transform="matrix(1 0 0 1 0 0)"><image x="0" y="0" xlink:href="img_12.png" width="43" height="44" /></g></g><g transform="matrix(0.2372093 0 0 0.2372727 95.4 512.56)"><g transform="matrix(1 0 0 1 0 0)"><image x="0" y="0" xlink:href="img_12.png" width="43" height="44" /></g></g><g transform="matrix(0.24 0 0 0.2372727 105.12 512.56)"><g transform="matrix(1 0 0 1 0 0)"><image x="0" y="0" xlink:href="img_12.png" width="43" height="44" /></g></g><g transform="matrix(0.2372093 0 0 0.2372727 114.96 512.56)"><g transform="matrix(1 0 0 1 0 0)"><image x="0" y="0" xlink:href="img_12.png" width="43" height="44" /></g></g><g transform="matrix(0.24 0 0 0.2372727 124.68 512.56)"><g transform="matrix(1 0 0 1 0 0)"><image x="0" y="0" xlink:href="img_12.png" width="43" height="44" /></g></g><g transform="matrix(0.2372093 0 0 0.2372727 134.52 512.56)"><g transform="matrix(1 0 0 1 0 0)"><image x="0" y="0" xlink:href="img_12.png" width="43" height="44" /></g></g><g transform="matrix(0.24 0 0 0.2372727 144.24 512.56)"><g transform="matrix(1 0 0 1 0 0)"><image x="0" y="0" xlink:href="img_12.png" width="43" height="44" /></g></g><g transform="matrix(0.2372093 0 0 0.2372727 154.08 512.56)"><g transform="matrix(1 0 0 1 0 0)"><image x="0" y="0" xlink:href="img_12.png" width="43" height="44" /></g></g><g transform="matrix(0.24 0 0 0.2372727 163.8 512.56)"><g transform="matrix(1 0 0 1 0 0)"><image x="0" y="0" xlink:href="img_12.png" width="43" height="44" /></g></g><g transform="matrix(0.2372093 0 0 0.2372727 173.64 512.56)"><g transform="matrix(1 0 0 1 0 0)"><image x="0" y="0" xlink:href="img_12.png" width="43" height="44" /></g></g><g transform="matrix(0.24 0 0 0.2372727 183.36 512.56)"><g transform="matrix(1 0 0 1 0 0)"><image x="0" y="0" xlink:href="img_12.png" width="43" height="44" /></g></g><g transform="matrix(0.2372093 0 0 0.2372727 193.2 512.56)"><g transform="matrix(1 0 0 1 0 0)"><image x="0" y="0" xlink:href="img_12.png" width="43" height="44" /></g></g><g transform="matrix(0.24 0 0 0.2372727 202.92 512.56)"><g transform="matrix(1 0 0 1 0 0)"><image x="0" y="0" xlink:href="img_12.png" width="43" height="44" /></g></g><g transform="matrix(0.2372093 0 0 0.2372727 212.76 512.56)"><g transform="matrix(1 0 0 1 0 0)"><image x="0" y="0" xlink:href="img_12.png" width="43" height="44" /></g></g><g transform="matrix(0.24 0 0 0.2372727 222.48 512.56)"><g transform="matrix(1 0 0 1 0 0)"><image x="0" y="0" xlink:href="img_12.png" width="43" height="44" /></g></g><g transform="matrix(0.2372727 0 0 0.2372727 232.32 512.56)"><g transform="matrix(1 0 0 1 0 0)"><image x="0" y="0" xlink:href="img_13.png" width="44" height="44" /></g></g><path id="258" transform="matrix(1 0 0 -1 0 841)" d="M48.33 299.75C 42.027 299.75 36.918 294.64 36.918 288.34L36.918 288.34L36.918 56.631C 36.918 50.327 42.027 45.219 48.33 45.219L48.33 45.219L240.6 45.219C 246.91 45.219 252.01 50.327 252.01 56.631L252.01 56.631L252.01 288.34C 252.01 294.64 246.91 299.75 240.6 299.75z" stroke="#9DC3E6" stroke-width="3" fill="none" /><path id="259" transform="matrix(1 0 0 -1 0 841)" d="M273.63 562.89C 268.09 562.89 263.6 558.4 263.6 552.87L263.6 552.87L263.6 319.65C 263.6 314.12 268.09 309.63 273.63 309.63L273.63 309.63L548.1 309.63C 553.64 309.63 558.13 314.12 558.13 319.65L558.13 319.65L558.13 552.87C 558.13 558.4 553.64 562.89 548.1 562.89z" stroke="#9DC3E6" stroke-width="3" fill="none" /><g clip-path="url(#7)"><g transform="matrix(0.353861 0 0 0.3538551 50.576 542.22)"><g transform="matrix(1 0 0 1 0 0)"><image x="0" y="0" xlink:href="img_14.png" width="518" height="345" /></g></g></g><g clip-path="url(#8)"><g transform="matrix(0.4514095 0 0 0.4514231 46.171 662.353)"><g transform="matrix(1 0 0 1 0 0)"><image x="0" y="0" xlink:href="img_15.png" width="188" height="26" /></g></g></g><g clip-path="url(#9)"><g transform="matrix(0.4514095 0 0 0.4514231 158.37 662.693)"><g transform="matrix(1 0 0 1 0 0)"><image x="0" y="0" xlink:href="img_15.png" width="188" height="26" /></g></g></g><g transform="matrix(0.24 0 0 0.24 44.4 676.12)"><g transform="matrix(1 0 0 1 0 0)"><image x="0" y="0" xlink:href="img_16.png" width="44" height="44" /></g></g><g transform="matrix(0.2372727 0 0 0.24 54.48 676.12)"><g transform="matrix(1 0 0 1 0 0)"><image x="0" y="0" xlink:href="img_17.png" width="44" height="44" /></g></g><g transform="matrix(0.2372727 0 0 0.24 64.44 676.12)"><g transform="matrix(1 0 0 1 0 0)"><image x="0" y="0" xlink:href="img_17.png" width="44" height="44" /></g></g><g transform="matrix(0.24 0 0 0.24 74.4 676.12)"><g transform="matrix(1 0 0 1 0 0)"><image x="0" y="0" xlink:href="img_17.png" width="44" height="44" /></g></g><g transform="matrix(0.2372727 0 0 0.24 84.48 676.12)"><g transform="matrix(1 0 0 1 0 0)"><image x="0" y="0" xlink:href="img_17.png" width="44" height="44" /></g></g><g transform="matrix(0.24 0 0 0.24 94.44 676.12)"><g transform="matrix(1 0 0 1 0 0)"><image x="0" y="0" xlink:href="img_17.png" width="44" height="44" /></g></g><g transform="matrix(0.2372727 0 0 0.24 104.52 676.12)"><g transform="matrix(1 0 0 1 0 0)"><image x="0" y="0" xlink:href="img_17.png" width="44" height="44" /></g></g><g transform="matrix(0.24 0 0 0.24 114.48 676.12)"><g transform="matrix(1 0 0 1 0 0)"><image x="0" y="0" xlink:href="img_17.png" width="44" height="44" /></g></g><g transform="matrix(0.2372727 0 0 0.24 124.56 676.12)"><g transform="matrix(1 0 0 1 0 0)"><image x="0" y="0" xlink:href="img_17.png" width="44" height="44" /></g></g><g transform="matrix(0.2372727 0 0 0.24 134.52 676.12)"><g transform="matrix(1 0 0 1 0 0)"><image x="0" y="0" xlink:href="img_17.png" width="44" height="44" /></g></g><g transform="matrix(0.24 0 0 0.24 144.48 676.12)"><g transform="matrix(1 0 0 1 0 0)"><image x="0" y="0" xlink:href="img_17.png" width="44" height="44" /></g></g><g transform="matrix(0.2372727 0 0 0.24 154.56 676.12)"><g transform="matrix(1 0 0 1 0 0)"><image x="0" y="0" xlink:href="img_17.png" width="44" height="44" /></g></g><g transform="matrix(0.24 0 0 0.24 164.52 676.12)"><g transform="matrix(1 0 0 1 0 0)"><image x="0" y="0" xlink:href="img_17.png" width="44" height="44" /></g></g><g transform="matrix(0.2372727 0 0 0.24 174.6 676.12)"><g transform="matrix(1 0 0 1 0 0)"><image x="0" y="0" xlink:href="img_17.png" width="44" height="44" /></g></g><g transform="matrix(0.2372727 0 0 0.24 184.56 676.12)"><g transform="matrix(1 0 0 1 0 0)"><image x="0" y="0" xlink:href="img_17.png" width="44" height="44" /></g></g><g transform="matrix(0.24 0 0 0.24 194.52 676.12)"><g transform="matrix(1 0 0 1 0 0)"><image x="0" y="0" xlink:href="img_17.png" width="44" height="44" /></g></g><g transform="matrix(0.2372727 0 0 0.24 204.6 676.12)"><g transform="matrix(1 0 0 1 0 0)"><image x="0" y="0" xlink:href="img_17.png" width="44" height="44" /></g></g><g transform="matrix(0.24 0 0 0.24 214.56 676.12)"><g transform="matrix(1 0 0 1 0 0)"><image x="0" y="0" xlink:href="img_17.png" width="44" height="44" /></g></g><g transform="matrix(0.2372727 0 0 0.24 224.64 676.12)"><g transform="matrix(1 0 0 1 0 0)"><image x="0" y="0" xlink:href="img_17.png" width="44" height="44" /></g></g><g transform="matrix(0.2372727 0 0 0.24 234.6 676.12)"><g transform="matrix(1 0 0 1 0 0)"><image x="0" y="0" xlink:href="img_18.png" width="44" height="44" /></g></g><g transform="matrix(0.24 0 0 0.2373333 44.4 686.2)"><g transform="matrix(1 0 0 1 0 0)"><image x="0" y="0" xlink:href="img_19.png" width="44" height="45" /></g></g><g transform="matrix(0.24 0 0 0.2373333 44.4 696.4)"><g transform="matrix(1 0 0 1 0 0)"><image x="0" y="0" xlink:href="img_19.png" width="44" height="45" /></g></g><g transform="matrix(0.24 0 0 0.24 44.4 706.6)"><g transform="matrix(1 0 0 1 0 0)"><image x="0" y="0" xlink:href="img_19.png" width="44" height="45" /></g></g><g transform="matrix(0.24 0 0 0.2373333 44.4 716.92)"><g transform="matrix(1 0 0 1 0 0)"><image x="0" y="0" xlink:href="img_19.png" width="44" height="45" /></g></g><g transform="matrix(0.24 0 0 0.2373333 44.4 727.12)"><g transform="matrix(1 0 0 1 0 0)"><image x="0" y="0" xlink:href="img_19.png" width="44" height="45" /></g></g><g transform="matrix(0.24 0 0 0.24 44.4 737.32)"><g transform="matrix(1 0 0 1 0 0)"><image x="0" y="0" xlink:href="img_19.png" width="44" height="45" /></g></g><g transform="matrix(0.24 0 0 0.2373333 44.4 747.64)"><g transform="matrix(1 0 0 1 0 0)"><image x="0" y="0" xlink:href="img_19.png" width="44" height="45" /></g></g><g transform="matrix(0.24 0 0 0.2373333 44.4 757.84)"><g transform="matrix(1 0 0 1 0 0)"><image x="0" y="0" xlink:href="img_19.png" width="44" height="45" /></g></g><g transform="matrix(0.24 0 0 0.2373333 44.4 768.04)"><g transform="matrix(1 0 0 1 0 0)"><image x="0" y="0" xlink:href="img_19.png" width="44" height="45" /></g></g><g transform="matrix(0.2372727 0 0 0.2373333 234.6 686.2)"><g transform="matrix(1 0 0 1 0 0)"><image x="0" y="0" xlink:href="img_20.png" width="44" height="45" /></g></g><g transform="matrix(0.2372727 0 0 0.2373333 234.6 696.4)"><g transform="matrix(1 0 0 1 0 0)"><image x="0" y="0" xlink:href="img_20.png" width="44" height="45" /></g></g><g transform="matrix(0.2372727 0 0 0.24 234.6 706.6)"><g transform="matrix(1 0 0 1 0 0)"><image x="0" y="0" xlink:href="img_20.png" width="44" height="45" /></g></g><g transform="matrix(0.2372727 0 0 0.2373333 234.6 716.92)"><g transform="matrix(1 0 0 1 0 0)"><image x="0" y="0" xlink:href="img_20.png" width="44" height="45" /></g></g><g transform="matrix(0.2372727 0 0 0.2373333 234.6 727.12)"><g transform="matrix(1 0 0 1 0 0)"><image x="0" y="0" xlink:href="img_20.png" width="44" height="45" /></g></g><g transform="matrix(0.2372727 0 0 0.24 234.6 737.32)"><g transform="matrix(1 0 0 1 0 0)"><image x="0" y="0" xlink:href="img_20.png" width="44" height="45" /></g></g><g transform="matrix(0.2372727 0 0 0.2373333 234.6 747.64)"><g transform="matrix(1 0 0 1 0 0)"><image x="0" y="0" xlink:href="img_20.png" width="44" height="45" /></g></g><g transform="matrix(0.2372727 0 0 0.2373333 234.6 757.84)"><g transform="matrix(1 0 0 1 0 0)"><image x="0" y="0" xlink:href="img_20.png" width="44" height="45" /></g></g><g transform="matrix(0.2372727 0 0 0.2373333 234.6 768.04)"><g transform="matrix(1 0 0 1 0 0)"><image x="0" y="0" xlink:href="img_20.png" width="44" height="45" /></g></g><g transform="matrix(0.24 0 0 0.24 44.4 778.24)"><g transform="matrix(1 0 0 1 0 0)"><image x="0" y="0" xlink:href="img_21.png" width="44" height="44" /></g></g><g transform="matrix(0.2372727 0 0 0.24 54.48 778.24)"><g transform="matrix(1 0 0 1 0 0)"><image x="0" y="0" xlink:href="img_22.png" width="44" height="44" /></g></g><g transform="matrix(0.2372727 0 0 0.24 64.44 778.24)"><g transform="matrix(1 0 0 1 0 0)"><image x="0" y="0" xlink:href="img_22.png" width="44" height="44" /></g></g><g transform="matrix(0.24 0 0 0.24 74.4 778.24)"><g transform="matrix(1 0 0 1 0 0)"><image x="0" y="0" xlink:href="img_22.png" width="44" height="44" /></g></g><g transform="matrix(0.2372727 0 0 0.24 84.48 778.24)"><g transform="matrix(1 0 0 1 0 0)"><image x="0" y="0" xlink:href="img_22.png" width="44" height="44" /></g></g><g transform="matrix(0.24 0 0 0.24 94.44 778.24)"><g transform="matrix(1 0 0 1 0 0)"><image x="0" y="0" xlink:href="img_22.png" width="44" height="44" /></g></g><g transform="matrix(0.2372727 0 0 0.24 104.52 778.24)"><g transform="matrix(1 0 0 1 0 0)"><image x="0" y="0" xlink:href="img_22.png" width="44" height="44" /></g></g><g transform="matrix(0.24 0 0 0.24 114.48 778.24)"><g transform="matrix(1 0 0 1 0 0)"><image x="0" y="0" xlink:href="img_22.png" width="44" height="44" /></g></g><g transform="matrix(0.2372727 0 0 0.24 124.56 778.24)"><g transform="matrix(1 0 0 1 0 0)"><image x="0" y="0" xlink:href="img_22.png" width="44" height="44" /></g></g><g transform="matrix(0.2372727 0 0 0.24 134.52 778.24)"><g transform="matrix(1 0 0 1 0 0)"><image x="0" y="0" xlink:href="img_22.png" width="44" height="44" /></g></g><g transform="matrix(0.24 0 0 0.24 144.48 778.24)"><g transform="matrix(1 0 0 1 0 0)"><image x="0" y="0" xlink:href="img_22.png" width="44" height="44" /></g></g><g transform="matrix(0.2372727 0 0 0.24 154.56 778.24)"><g transform="matrix(1 0 0 1 0 0)"><image x="0" y="0" xlink:href="img_22.png" width="44" height="44" /></g></g><g transform="matrix(0.24 0 0 0.24 164.52 778.24)"><g transform="matrix(1 0 0 1 0 0)"><image x="0" y="0" xlink:href="img_22.png" width="44" height="44" /></g></g><g transform="matrix(0.2372727 0 0 0.24 174.6 778.24)"><g transform="matrix(1 0 0 1 0 0)"><image x="0" y="0" xlink:href="img_22.png" width="44" height="44" /></g></g><g transform="matrix(0.2372727 0 0 0.24 184.56 778.24)"><g transform="matrix(1 0 0 1 0 0)"><image x="0" y="0" xlink:href="img_22.png" width="44" height="44" /></g></g><g transform="matrix(0.24 0 0 0.24 194.52 778.24)"><g transform="matrix(1 0 0 1 0 0)"><image x="0" y="0" xlink:href="img_22.png" width="44" height="44" /></g></g><g transform="matrix(0.2372727 0 0 0.24 204.6 778.24)"><g transform="matrix(1 0 0 1 0 0)"><image x="0" y="0" xlink:href="img_22.png" width="44" height="44" /></g></g><g transform="matrix(0.24 0 0 0.24 214.56 778.24)"><g transform="matrix(1 0 0 1 0 0)"><image x="0" y="0" xlink:href="img_22.png" width="44" height="44" /></g></g><g transform="matrix(0.2372727 0 0 0.24 224.64 778.24)"><g transform="matrix(1 0 0 1 0 0)"><image x="0" y="0" xlink:href="img_22.png" width="44" height="44" /></g></g><g transform="matrix(0.2372727 0 0 0.24 234.6 778.24)"><g transform="matrix(1 0 0 1 0 0)"><image x="0" y="0" xlink:href="img_23.png" width="44" height="44" /></g></g><path id="360" transform="matrix(1 0 0 -1 0 841)" d="M280.04 162.12C 273.52 162.12 268.24 156.84 268.24 150.32L268.24 150.32L268.24 63.536C 268.24 57.02 273.52 51.742 280.04 51.742L280.04 51.742L391.54 51.742C 398.06 51.742 403.34 57.02 403.34 63.536L403.34 63.536L403.34 150.32C 403.34 156.84 398.06 162.12 391.54 162.12z" stroke="#9DC3E6" stroke-width="2" fill="none" /><path id="415" transform="matrix(1 0 0 -1 0 841)" d="M422.61 162.9C 416.1 162.9 410.82 157.62 410.82 151.1L410.82 151.1L410.82 64.324C 410.82 57.809 416.1 52.525 422.61 52.525L422.61 52.525L537.79 52.525C 544.31 52.525 549.59 57.809 549.59 64.324L549.59 64.324L549.59 151.1C 549.59 157.62 544.31 162.9 537.79 162.9z" stroke="#9DC3E6" stroke-width="2" fill="none" /><g transform="matrix(0.24 0 0 0.24 274.32 572.8)"><g transform="matrix(1 0 0 1 0 0)"><image x="0" y="0" xlink:href="img_24.png" width="139" height="271" /></g></g><path id="481" transform="matrix(1 0 0 -1 0 841)" clip-path="url(#10)" d="M0 272.48L595 272.48L595 272.48L595 202.48L595 202.48L0 202.48" stroke="none" fill="url(#7099)" /><path id="482" transform="matrix(1 0 0 -1 0 841)" clip-path="url(#11)" d="M0 272.48L595 272.48L595 272.48L595 841L595 841L0 841" stroke="none" fill="#9DC3E6" fill-rule="evenodd" /><path id="483" transform="matrix(1 0 0 -1 0 841)" clip-path="url(#12)" d="M0 202.48L595 202.48L595 202.48L595 0L595 0L0 0" stroke="none" fill="#9DC3E6" fill-rule="evenodd" /><path id="484" transform="matrix(1 0 0 -1 0 841)" d="M284.37 269.56C 278.6 269.56 273.92 264.88 273.92 259.11L273.92 259.11L273.92 216.19C 273.92 210.42 278.6 205.74 284.37 205.74L284.37 205.74L295.67 205.74C 301.44 205.74 306.12 210.42 306.12 216.19L306.12 216.19L306.12 259.11C 306.12 264.88 301.44 269.56 295.67 269.56z" stroke="none" fill="none" /><path id="485" transform="matrix(1 0 0 -1 0 841)" d="M284.37 269.56C 278.6 269.56 273.92 264.88 273.92 259.11L273.92 259.11L273.92 216.19C 273.92 210.42 278.6 205.74 284.37 205.74L284.37 205.74L295.67 205.74C 301.44 205.74 306.12 210.42 306.12 216.19L306.12 216.19L306.12 259.11C 306.12 264.88 301.44 269.56 295.67 269.56z" stroke="#5B9BD5" stroke-width="1" fill="none" /><g transform="matrix(0.06 0 0 0.06 283.97 585.98)"><g transform="matrix(1 0 0 1 0 0)"><image x="0" y="0" xlink:href="img_25.png" width="400" height="228" /></g></g><g transform="matrix(0.06 0 0 0.06 283.97 607.22)"><g transform="matrix(1 0 0 1 0 0)"><image x="0" y="0" xlink:href="img_26.png" width="400" height="228" /></g></g><path id="488" transform="matrix(1 0 0 -1 0 841)" d="M332.19 292.96C 324.81 292.96 318.84 286.98 318.84 279.61L318.84 279.61L318.84 184.63C 318.84 177.25 324.81 171.28 332.19 171.28L332.19 171.28L537.01 171.28C 544.38 171.28 550.36 177.25 550.36 184.63L550.36 184.63L550.36 279.61C 550.36 286.98 544.38 292.96 537.01 292.96z" stroke="#BED7EF" stroke-width="2" fill="none" /><path id="528" transform="matrix(1 0 0 -1 0 841)" d="M281.19 416.93C 275.49 416.93 270.86 412.31 270.86 406.61L270.86 406.61L270.86 330.63C 270.86 324.93 275.49 320.31 281.19 320.31L281.19 320.31L395.64 320.31C 401.34 320.31 405.96 324.93 405.96 330.63L405.96 330.63L405.96 406.61C 405.96 412.31 401.34 416.93 395.64 416.93z" stroke="#9DC3E6" stroke-width="2" fill="none" /><path id="567" transform="matrix(1 0 0 -1 0 841)" d="M423.79 416.18C 418.09 416.18 413.46 411.56 413.46 405.85L413.46 405.85L413.46 329.86C 413.46 324.15 418.09 319.52 423.79 319.52L423.79 319.52L541.9 319.52C 547.61 319.52 552.24 324.15 552.24 329.86L552.24 329.86L552.24 405.85C 552.24 411.56 547.61 416.18 541.9 416.18z" stroke="#9DC3E6" stroke-width="2" fill="none" /><g transform="matrix(0.2391429 0 0 0.24 276.12 304.84)"><g transform="matrix(1 0 0 1 0 0)"><image x="0" y="0" xlink:href="img_27.png" width="140" height="271" /></g></g><path id="604" transform="matrix(1 0 0 -1 0 841)" clip-path="url(#13)" d="M0 540.48L595 540.48L595 540.48L595 470.48L595 470.48L0 470.48" stroke="none" fill="url(#12556)" /><path id="605" transform="matrix(1 0 0 -1 0 841)" clip-path="url(#14)" d="M0 540.48L595 540.48L595 540.48L595 841L595 841L0 841" stroke="none" fill="#9DC3E6" fill-rule="evenodd" /><path id="606" transform="matrix(1 0 0 -1 0 841)" clip-path="url(#15)" d="M0 470.48L595 470.48L595 470.48L595 0L595 0L0 0" stroke="none" fill="#9DC3E6" fill-rule="evenodd" /><path id="607" transform="matrix(1 0 0 -1 0 841)" d="M286.21 537.6C 280.44 537.6 275.76 532.92 275.76 527.15L275.76 527.15L275.76 484.23C 275.76 478.46 280.44 473.79 286.21 473.79L286.21 473.79L297.51 473.79C 303.28 473.79 307.96 478.46 307.96 484.23L307.96 484.23L307.96 527.15C 307.96 532.92 303.28 537.6 297.51 537.6z" stroke="none" fill="none" /><path id="608" transform="matrix(1 0 0 -1 0 841)" d="M286.21 537.6C 280.44 537.6 275.76 532.92 275.76 527.15L275.76 527.15L275.76 484.23C 275.76 478.46 280.44 473.79 286.21 473.79L286.21 473.79L297.51 473.79C 303.28 473.79 307.96 478.46 307.96 484.23L307.96 484.23L307.96 527.15C 307.96 532.92 303.28 537.6 297.51 537.6z" stroke="#5B9BD5" stroke-width="1" fill="none" /><g transform="matrix(0.06 0 0 0.06 285.77 317.85)"><g transform="matrix(1 0 0 1 0 0)"><image x="0" y="0" xlink:href="img_28.png" width="400" height="228" /></g></g><g transform="matrix(0.06 0 0 0.06 285.77 339.09)"><g transform="matrix(1 0 0 1 0 0)"><image x="0" y="0" xlink:href="img_29.png" width="400" height="228" /></g></g><path id="611" transform="matrix(1 0 0 -1 0 841)" d="M334.81 554.75C 327.44 554.75 321.46 548.77 321.46 541.39L321.46 541.39L321.46 446.41C 321.46 439.04 327.44 433.06 334.81 433.06L334.81 433.06L539.63 433.06C 547.01 433.06 552.98 439.04 552.98 446.41L552.98 446.41L552.98 541.39C 552.98 548.77 547.01 554.75 539.63 554.75z" stroke="#BED7EF" stroke-width="2" fill="none" /></g></g></svg>